<?xml version="1.0" encoding="UTF-8" standalone="no"?>
<!-- Created with Inkscape (http://www.inkscape.org/) -->

<svg
   xmlns:dc="http://purl.org/dc/elements/1.1/"
   xmlns:cc="http://creativecommons.org/ns#"
   xmlns:rdf="http://www.w3.org/1999/02/22-rdf-syntax-ns#"
   xmlns:svg="http://www.w3.org/2000/svg"
   xmlns="http://www.w3.org/2000/svg"
   xmlns:sodipodi="http://sodipodi.sourceforge.net/DTD/sodipodi-0.dtd"
   xmlns:inkscape="http://www.inkscape.org/namespaces/inkscape"
   version="1.0"
   width="468.91"
   height="488.53"
   sodipodi:version="0.32"
   inkscape:version="0.48.2 r9819"
   sodipodi:docname="usa-ga.svg"
   inkscape:output_extension="org.inkscape.output.svg.inkscape"
   id="svg3152">
  <metadata
     id="metadata3154">
    <rdf:RDF>
      <cc:Work
         rdf:about="">
        <dc:format>image/svg+xml</dc:format>
        <dc:type
           rdf:resource="http://purl.org/dc/dcmitype/StillImage" />
      </cc:Work>
    </rdf:RDF>
  </metadata>
  <defs
     id="defs3156" />
  <sodipodi:namedview
     pagecolor="#ffffff"
     bordercolor="#666666"
     borderopacity="1"
     objecttolerance="10"
     gridtolerance="10"
     guidetolerance="10"
     inkscape:pageopacity="0"
     inkscape:pageshadow="2"
     inkscape:window-width="1366"
     inkscape:window-height="716"
     fit-margin-top="0"
     fit-margin-left="0"
     fit-margin-right="0"
     fit-margin-bottom="0"
     inkscape:zoom="1.5832469"
     inkscape:cx="290.16874"
     inkscape:cy="394.91649"
     inkscape:window-x="-8"
     inkscape:window-y="-8"
     inkscape:window-maximized="1"
     inkscape:current-layer="svg3152"
     id="namedview3158"
     showgrid="false" />
  <path
     style="font-size:12px;fill:#d0d0d0;fill-rule:nonzero;stroke:#000000;stroke-width:1;stroke-linecap:butt;stroke-linejoin:bevel;stroke-miterlimit:4;stroke-opacity:1;stroke-dasharray:none;marker-start:none"
     d="m 218.36611,1.5009638 -1.89479,8.6103602 -8.01509,6.229307 -5.81011,10.547064 -1.44205,8.16601 -27.72587,-8.048634 6.56467,-19.4592476 5.71788,-0.913855 32.60536,-5.1310046"
     id="Rabun"
     inkscape:connector-curvature="0" />
  <path
     style="font-size:12px;fill:#d0d0d0;fill-rule:nonzero;stroke:#000000;stroke-width:1;stroke-linecap:butt;stroke-linejoin:bevel;stroke-miterlimit:4;stroke-opacity:1;stroke-dasharray:none;marker-start:none"
     d="m 146.31406,12.458842 33.72881,-4.9130186 -6.56467,19.4592476 -2.27206,2.74995 -8.5349,1.928319 -0.37728,-2.716414 -3.21107,-7.520443 -2.58227,-1.475582 -2.55712,0.192831 -5.35737,-3.026621 -2.80026,-2.682878 0.52819,-1.995391"
     id="Towns"
     inkscape:connector-curvature="0" />
  <path
     style="font-size:12px;fill:#d0d0d0;fill-rule:nonzero;stroke:#000000;stroke-width:1;stroke-linecap:butt;stroke-linejoin:bevel;stroke-miterlimit:4;stroke-opacity:1;stroke-dasharray:none;marker-start:none"
     d="m 189.42456,394.7438 4.4519,39.42154 -10.38777,1.19891 -23.85246,2.92601 -12.07295,1.49235 0.0755,-4.52736 1.38335,-3.70572 0.50304,-0.7881 11.02496,-15.80382 11.11717,-8.6439 4.75373,-9.52422 13.00357,-2.04569"
     id="Mitchell"
     inkscape:connector-curvature="0" />
  <path
     style="font-size:12px;fill:#d0d0d0;fill-rule:nonzero;stroke:#000000;stroke-width:1;stroke-linecap:butt;stroke-linejoin:bevel;stroke-miterlimit:4;stroke-opacity:1;stroke-dasharray:none;marker-start:none"
     d="m 150.01141,400.44491 26.40958,-3.65542 -4.75373,9.52422 -11.11717,8.6439 -11.02496,15.80382 -0.50304,0.7881 -1.38335,3.70572 -0.0755,4.52736 -3.18592,0.30183 -11.41061,-18.20166 -1.8864,-18.86398 18.93106,-2.57389"
     id="Baker"
     inkscape:connector-curvature="0" />
  <path
     style="font-size:12px;fill:#d0d0d0;fill-rule:nonzero;stroke:#000000;stroke-width:1;stroke-linecap:butt;stroke-linejoin:bevel;stroke-miterlimit:4;stroke-opacity:1;stroke-dasharray:none;marker-start:none"
     d="m 132.96675,421.88278 11.41061,18.20166 -17.15365,3.14399 -17.65669,1.73549 -1.8864,-19.76107 19.54309,-1.89479 5.74304,-1.16537 0,-0.25991"
     id="Miller"
     inkscape:connector-curvature="0" />
  <path
     style="font-size:12px;fill:#d0d0d0;fill-rule:nonzero;stroke:#000000;stroke-width:1;stroke-linecap:butt;stroke-linejoin:bevel;stroke-miterlimit:4;stroke-opacity:1;stroke-dasharray:none;marker-start:none"
     d="m 113.54942,397.7788 17.53093,5.24 1.8864,18.86398 0,0.25991 -5.74304,1.16537 -19.54309,1.89479 1.8864,19.76107 -9.15532,0.75456 -0.9977,-2.15469 -0.68748,-1.23244 -4.368065,-4.80403 -0.687487,-0.19283 -0.79648,0 -0.796479,-0.45274 -0.939008,-2.18822 -1.282751,-7.67136 0.637184,-2.80025 0.980927,-2.86733 1.140223,-23.0476 1.995391,3.36199 2.079235,-0.22637 1.7774,-0.57011 2.53197,-0.9977 12.55084,-2.096"
     id="Early"
     inkscape:connector-curvature="0" />
  <path
     style="font-size:12px;fill:#d0d0d0;fill-rule:nonzero;stroke:#000000;stroke-width:1;stroke-linecap:butt;stroke-linejoin:bevel;stroke-miterlimit:4;stroke-opacity:1;stroke-dasharray:none;marker-start:none"
     d="m 109.56702,444.96392 17.65669,-1.73549 -1.61811,3.96563 1.66003,16.09727 -0.71264,5.48313 -2.88409,5.32384 -3.63027,2.34752 -1.32467,2.79187 -0.14253,1.70195 0.98093,2.15468 -0.11738,0 -16.31525,-29.54519 -2.70803,-7.83065 9.15532,-0.75456"
     id="Seminole"
     inkscape:connector-curvature="0" />
  <path
     style="font-size:12px;fill:#d0d0d0;fill-rule:nonzero;stroke:#000000;stroke-width:1;stroke-linecap:butt;stroke-linejoin:bevel;stroke-miterlimit:4;stroke-opacity:1;stroke-dasharray:none;marker-start:none"
     d="m 159.63623,438.29026 4.72857,41.78583 -44.81244,3.01823 -0.98093,-2.15468 0.14253,-1.70195 1.32467,-2.79187 3.63027,-2.34752 2.88409,-5.32384 0.71264,-5.48313 -1.66003,-16.09727 1.61811,-3.96563 17.15365,-3.14399 3.18592,-0.30183 12.07295,-1.49235"
     id="Decatur"
     inkscape:connector-curvature="0" />
  <path
     style="font-size:12px;fill:#d0d0d0;fill-rule:nonzero;stroke:#000000;stroke-width:1;stroke-linecap:butt;stroke-linejoin:bevel;stroke-miterlimit:4;stroke-opacity:1;stroke-dasharray:none;marker-start:none"
     d="m 183.48869,435.36425 1.14023,10.62252 1.36659,2.95116 1.24083,1.55104 1.84448,1.77741 2.88409,25.873 -18.33579,1.29114 -9.26432,0.64557 -4.72857,-41.78583 23.85246,-2.92601"
     id="Grady"
     inkscape:connector-curvature="0" />
  <path
     style="font-size:12px;fill:#d0d0d0;fill-rule:nonzero;stroke:#000000;stroke-width:1;stroke-linecap:butt;stroke-linejoin:bevel;stroke-miterlimit:4;stroke-opacity:1;stroke-dasharray:none;marker-start:none"
     d="m 193.87646,434.16534 25.05137,1.08991 4.61958,40.73783 -24.48964,1.66841 -7.09286,0.47789 -2.88409,-25.873 -1.84448,-1.77741 -1.24083,-1.55104 -1.36659,-2.95116 -1.14023,-10.62252 10.38777,-1.19891"
     id="Thomas"
     inkscape:connector-curvature="0" />
  <path
     style="font-size:12px;fill:#d0d0d0;fill-rule:nonzero;stroke:#000000;stroke-width:1;stroke-linecap:butt;stroke-linejoin:bevel;stroke-miterlimit:4;stroke-opacity:1;stroke-dasharray:none;marker-start:none"
     d="m 242.97313,432.72329 8.30015,21.35403 -2.4062,2.64096 -2.69127,5.67596 -0.0671,0.39405 3.51289,5.15616 1.50074,1.12345 8.35046,4.50221 -23.64286,1.62649 -12.28256,0.79648 -4.61958,-40.73783 14.25279,-6.27122 9.79251,3.73926"
     id="Brooks"
     inkscape:connector-curvature="0" />
  <path
     style="font-size:12px;fill:#d0d0d0;fill-rule:nonzero;stroke:#000000;stroke-width:1;stroke-linecap:butt;stroke-linejoin:bevel;stroke-miterlimit:4;stroke-opacity:1;stroke-dasharray:none;marker-start:none"
     d="m 235.36885,401.47614 -2.18823,27.50789 -14.25279,6.27122 -25.05137,-1.08991 -3.12723,-27.70072 31.63281,-3.63027 12.98681,-1.35821"
     id="Colquitt"
     inkscape:connector-curvature="0" />
  <path
     style="font-size:12px;fill:#d0d0d0;fill-rule:nonzero;stroke:#000000;stroke-width:1;stroke-linecap:butt;stroke-linejoin:bevel;stroke-miterlimit:4;stroke-opacity:1;stroke-dasharray:none;marker-start:none"
     d="m 242.21857,398.11416 0,3.4039 0.59526,1.69357 0.59527,0.86355 5.00524,3.5129 1.4672,0.53657 7.55398,16.17272 2.15468,6.72397 -16.61707,1.70195 -9.79251,-3.73926 2.18823,-27.50789 6.84972,-3.36198"
     id="Cook"
     inkscape:connector-curvature="0" />
  <path
     style="font-size:12px;fill:#d0d0d0;fill-rule:nonzero;stroke:#000000;stroke-width:1;stroke-linecap:butt;stroke-linejoin:bevel;stroke-miterlimit:4;stroke-opacity:1;stroke-dasharray:none;marker-start:none"
     d="m 280.03038,411.15127 6.92518,-1.02284 4.64473,33.77072 -4.11654,2.73318 -1.17376,-5.81849 -2.42297,-4.34291 -12.57599,1.39175 -2.75834,-7.85581 -0.4192,-3.17753 1.6265,-10.27039 11.64537,-1.55942 0.0671,-0.4192 -0.56173,-1.8864 -0.88032,-1.54266"
     id="Lanier"
     inkscape:connector-curvature="0" />
  <path
     style="font-size:12px;fill:#d0d0d0;fill-rule:nonzero;stroke:#000000;stroke-width:1;stroke-linecap:butt;stroke-linejoin:bevel;stroke-miterlimit:4;stroke-opacity:1;stroke-dasharray:none;marker-start:none"
     d="m 259.5902,431.02134 8.96249,-1.01447 2.75834,7.85581 12.57599,-1.39175 2.42297,4.34291 1.17376,5.81849 -7.47852,25.57119 -16.06373,1.10668 -4.46867,0.25991 -8.35046,-4.50221 -1.50074,-1.12345 -3.51289,-5.15616 0.0671,-0.39405 2.69127,-5.67596 2.4062,-2.64096 -8.30015,-21.35403 16.61707,-1.70195"
     id="Lowndes"
     inkscape:connector-curvature="0" />
  <path
     style="font-size:12px;fill:#d0d0d0;fill-rule:nonzero;stroke:#000000;stroke-width:1;stroke-linecap:butt;stroke-linejoin:bevel;stroke-miterlimit:4;stroke-opacity:1;stroke-dasharray:none;marker-start:none"
     d="m 291.60029,443.89915 11.98073,2.20499 1.05638,1.69357 1.35821,3.78118 2.64934,2.95117 1.32467,0.70425 2.45651,0.69587 3.47098,-0.15929 1.85286,-0.25991 3.6638,-0.0838 6.08678,0.37728 1.6265,0.66234 0.939,0.93901 0.33536,0.56172 1.02285,10.65606 -9.82604,0.72102 -41.59299,2.85895 7.47852,-25.57119 4.11654,-2.73318"
     id="Echols"
     inkscape:connector-curvature="0" />
  <path
     style="font-size:12px;fill:#d0d0d0;fill-rule:nonzero;stroke:#000000;stroke-width:1;stroke-linecap:butt;stroke-linejoin:bevel;stroke-miterlimit:4;stroke-opacity:1;stroke-dasharray:none;marker-start:none"
     d="m 286.95556,410.12843 27.42404,-3.73088 8.275,14.11864 3.17754,3.21107 5.78495,4.30938 9.89312,14.21087 1.89478,12.47538 1.77741,9.59129 1.58457,3.21107 -3.78118,0.26828 -11.56153,0.83002 -1.02285,-10.65606 -0.33536,-0.56172 -0.939,-0.93901 -1.6265,-0.66234 -6.08678,-0.37728 -3.6638,0.0838 -1.85286,0.25991 -3.47098,0.15929 -2.45651,-0.69587 -1.32467,-0.70425 -2.64934,-2.95117 -1.35821,-3.78118 -1.05638,-1.69357 -11.98073,-2.20499 -4.64473,-33.77072"
     id="Clinch"
     inkscape:connector-curvature="0" />
  <path
     style="font-size:12px;fill:#d0d0d0;fill-rule:nonzero;stroke:#000000;stroke-width:1;stroke-linecap:butt;stroke-linejoin:bevel;stroke-miterlimit:4;stroke-opacity:1;stroke-dasharray:none;marker-start:none"
     d="m 315.56175,386.55264 -1.18215,19.84491 -27.42404,3.73088 -6.92518,1.02284 -0.86355,-4.53574 -2.27206,-9.82604 -4.20038,-3.2446 -4.29261,-4.53574 -0.15091,-0.27668 -0.19283,-1.80256 16.62546,-1.9367 12.21548,2.50682 1.42527,1.39174 17.2375,-2.33913"
     id="Atkinson"
     inkscape:connector-curvature="0" />
  <path
     style="font-size:12px;fill:#d0d0d0;fill-rule:nonzero;stroke:#000000;stroke-width:1;stroke-linecap:butt;stroke-linejoin:bevel;stroke-miterlimit:4;stroke-opacity:1;stroke-dasharray:none;marker-start:none"
     d="m 266.7669,381.48032 1.29114,5.44959 0.19283,1.80256 0.15091,0.27668 4.29261,4.53574 4.20038,3.2446 2.27206,9.82604 0.86355,4.53574 0.88032,1.54266 0.56173,1.8864 -0.0671,0.4192 -11.64537,1.55942 -1.6265,10.27039 0.4192,3.17753 -8.96249,1.01447 -2.15468,-6.72397 -7.55398,-16.17272 -1.4672,-0.53657 -5.00524,-3.5129 -0.59527,-0.86355 -0.59526,-1.69357 0,-3.4039 6.95033,-14.70552 17.598,-1.92832"
     id="Berrien"
     inkscape:connector-curvature="0" />
  <path
     style="font-size:12px;fill:#d0d0d0;fill-rule:nonzero;stroke:#000000;stroke-width:1;stroke-linecap:butt;stroke-linejoin:bevel;stroke-miterlimit:4;stroke-opacity:1;stroke-dasharray:none;marker-start:none"
     d="m 277.23851,358.05544 -10.47161,23.42488 -17.598,1.92832 -16.47455,-10.64767 1.99539,-18.1765 7.52883,-0.90547 5.17292,7.62943 5.76819,2.11277 8.13247,-0.79648 5.21485,-2.49005 10.73151,-2.07923"
     id="Irwin"
     inkscape:connector-curvature="0" />
  <path
     style="font-size:12px;fill:#d0d0d0;fill-rule:nonzero;stroke:#000000;stroke-width:1;stroke-linecap:butt;stroke-linejoin:bevel;stroke-miterlimit:4;stroke-opacity:1;stroke-dasharray:none;marker-start:none"
     d="m 219.46441,377.28832 13.22994,-4.52735 16.47455,10.64767 -6.95033,14.70552 -6.84972,3.36198 -12.98681,1.35821 -2.91763,-25.54603"
     id="Tift"
     inkscape:connector-curvature="0" />
  <path
     style="font-size:12px;fill:#d0d0d0;fill-rule:nonzero;stroke:#000000;stroke-width:1;stroke-linecap:butt;stroke-linejoin:bevel;stroke-miterlimit:4;stroke-opacity:1;stroke-dasharray:none;marker-start:none"
     d="m 189.19819,350.65237 13.03711,3.16915 0.41082,0.26829 0.6791,4.26745 1.97024,14.81452 7.1767,-0.8384 0.79648,0.27667 2.74995,1.81095 3.44582,2.86732 2.91763,25.54603 -31.63281,3.63027 -1.32467,-11.72082 -4.69504,-21.9493 4.46867,-22.14213"
     id="Worth"
     inkscape:connector-curvature="0" />
  <path
     style="font-size:12px;fill:#d0d0d0;fill-rule:nonzero;stroke:#000000;stroke-width:1;stroke-linecap:butt;stroke-linejoin:bevel;stroke-miterlimit:4;stroke-opacity:1;stroke-dasharray:none;marker-start:none"
     d="m 159.63623,379.02381 25.09329,-6.22931 4.69504,21.9493 -13.00357,2.04569 -26.40958,3.65542 -4.25907,-19.67723 13.88389,-1.74387"
     id="Dougherty"
     inkscape:connector-curvature="0" />
  <path
     style="font-size:12px;fill:#d0d0d0;fill-rule:nonzero;stroke:#000000;stroke-width:1;stroke-linecap:butt;stroke-linejoin:bevel;stroke-miterlimit:4;stroke-opacity:1;stroke-dasharray:none;marker-start:none"
     d="m 136.94076,381.89952 8.81158,-1.13184 4.25907,19.67723 -18.93106,2.57389 -17.53093,-5.24 -1.32467,-12.78559 24.71601,-3.09369"
     id="Calhoun"
     inkscape:connector-curvature="0" />
  <path
     style="font-size:12px;fill:#d0d0d0;fill-rule:nonzero;stroke:#000000;stroke-width:1;stroke-linecap:butt;stroke-linejoin:bevel;stroke-miterlimit:4;stroke-opacity:1;stroke-dasharray:none;marker-start:none"
     d="m 80.969217,371.13447 16.441013,-1.63488 2.74727,16.42601 12.06725,-0.93239 1.32467,12.78559 -12.55084,2.096 -2.53197,0.9977 -1.7774,0.57011 -2.079235,0.22637 -1.995391,-3.36199 -10.052408,-25.05975 -1.592959,-2.11277"
     id="Clay"
     sodipodi:nodetypes="cccccccccccc"
     inkscape:connector-curvature="0" />
  <path
     style="font-size:12px;fill:#d0d0d0;fill-rule:nonzero;stroke:#000000;stroke-width:1;stroke-linecap:butt;stroke-linejoin:bevel;stroke-miterlimit:4;stroke-opacity:1;stroke-dasharray:none;marker-start:none"
     d="m 85.23667,347.91919 15.00735,5.25677 -2.83379,16.32363 -16.441013,1.63488 4.267453,-23.21528"
     id="Quitman"
     inkscape:connector-curvature="0" />
  <path
     style="font-size:12px;fill:#d0d0d0;fill-rule:nonzero;stroke:#000000;stroke-width:1;stroke-linecap:butt;stroke-linejoin:bevel;stroke-miterlimit:4;stroke-opacity:1;stroke-dasharray:none;marker-start:none"
     d="m 123.14909,350.9542 5.09747,-0.61203 1.58457,15.95474 3.21107,1.28275 4.12493,7.67135 0.30182,3.69734 -0.30182,2.12115 -0.22637,0.83002 -24.71601,3.09369 -12.06725,0.87412 -2.74727,-16.36774 2.83379,-16.32363 22.90507,-2.22176"
     sodipodi:nodetypes="ccccccccccccc"
     id="Randolph"
     inkscape:connector-curvature="0" />
  <path
     style="font-size:12px;fill:#d0d0d0;fill-rule:nonzero;stroke:#000000;stroke-width:1;stroke-linecap:butt;stroke-linejoin:bevel;stroke-miterlimit:4;stroke-opacity:1;stroke-dasharray:none;marker-start:none"
     d="m 158.06842,371.6962 1.56781,7.32761 -13.88389,1.74387 -8.81158,1.13184 0.22637,-0.83002 0.30182,-2.12115 -0.30182,-3.69734 -4.12493,-7.67135 -3.21107,-1.28275 -1.58457,-15.95474 13.52338,-6.83296 10.8405,8.95411 5.45798,19.23288 z"
     sodipodi:nodetypes="ccccccccccccc"
     id="Terrell"
     inkscape:connector-curvature="0" />
  <path
     style="font-size:12px;fill:#d0d0d0;fill-rule:nonzero;stroke:#000000;stroke-width:1;stroke-linecap:butt;stroke-linejoin:bevel;stroke-miterlimit:4;stroke-opacity:1;stroke-dasharray:none;marker-start:none"
     d="m 189.8773,343.62659 -0.67911,7.02578 -4.46867,22.14213 -25.09329,6.22931 -1.56781,-7.32761 -5.45798,-19.23288 -0.55334,-4.61958 37.8202,-4.21715"
     id="Lee"
     inkscape:connector-curvature="0" />
  <path
     style="font-size:12px;fill:#d0d0d0;fill-rule:nonzero;stroke:#000000;stroke-width:1;stroke-linecap:butt;stroke-linejoin:bevel;stroke-miterlimit:4;stroke-opacity:1;stroke-dasharray:none;marker-start:none"
     d="m 184.72952,331.26858 31.94302,-3.85664 2.18822,18.73823 -16.62546,7.67135 -13.03711,-3.16915 0.67911,-7.02578 -5.14778,-12.35801"
     id="Crisp"
     inkscape:connector-curvature="0" />
  <path
     style="font-size:12px;fill:#d0d0d0;fill-rule:nonzero;stroke:#000000;stroke-width:1;stroke-linecap:butt;stroke-linejoin:bevel;stroke-miterlimit:4;stroke-opacity:1;stroke-dasharray:none;marker-start:none"
     d="m 218.86076,346.15017 12.08972,-0.86355 3.73926,9.29785 -1.99539,18.1765 -13.22994,4.52735 -3.44582,-2.86732 -2.74995,-1.81095 -0.79648,-0.27667 -7.1767,0.8384 -1.97024,-14.81452 -0.6791,-4.26745 -0.41082,-0.26829 16.62546,-7.67135"
     id="Turner"
     inkscape:connector-curvature="0" />
  <path
     style="font-size:12px;fill:#d0d0d0;fill-rule:nonzero;stroke:#000000;stroke-width:1;stroke-linecap:butt;stroke-linejoin:bevel;stroke-miterlimit:4;stroke-opacity:1;stroke-dasharray:none;marker-start:none"
     d="m 230.95048,345.28662 27.46596,-3.74765 17.4974,4.98848 1.32467,11.52799 -10.73151,2.07923 -5.21485,2.49005 -8.13247,0.79648 -5.76819,-2.11277 -5.17292,-7.62943 -7.52883,0.90547 -3.73926,-9.29785"
     id="Ben Hill"
     inkscape:connector-curvature="0" />
  <path
     style="font-size:12px;fill:#d0d0d0;fill-rule:nonzero;stroke:#000000;stroke-width:1;stroke-linecap:butt;stroke-linejoin:bevel;stroke-miterlimit:4;stroke-opacity:1;stroke-dasharray:none;marker-start:none"
     d="m 275.91384,346.52745 13.94258,-5.85203 2.12115,15.53554 19.04005,-2.80025 1.63488,12.27416 2.94278,-0.37727 1.24922,9.52421 -1.28275,11.72083 -17.2375,2.33913 -1.42527,-1.39174 -12.21548,-2.50682 -16.62546,1.9367 -1.29114,-5.44959 10.47161,-23.42488 -1.32467,-11.52799"
     id="Coffee"
     inkscape:connector-curvature="0" />
  <path
     style="font-size:12px;fill:#d0d0d0;fill-rule:nonzero;stroke:#000000;stroke-width:1;stroke-linecap:butt;stroke-linejoin:bevel;stroke-miterlimit:4;stroke-opacity:1;stroke-dasharray:none;marker-start:none"
     d="m 320.05557,347.9695 7.02578,3.89017 4.30099,2.23014 6.08678,1.58458 10.47161,5.1813 0.91385,0.98093 0.7881,1.55104 -1.17376,0.18445 -4.94656,4.80403 0.37728,2.71641 -3.44582,4.6112 -6.70719,2.45651 -16.90213,-3.32845 -1.24922,-9.52421 -2.94278,0.37727 -1.63488,-12.27416 9.03795,-5.44121"
     id="Bacon"
     inkscape:connector-curvature="0" />
  <path
     style="font-size:12px;fill:#d0d0d0;fill-rule:nonzero;stroke:#000000;stroke-width:1;stroke-linecap:butt;stroke-linejoin:bevel;stroke-miterlimit:4;stroke-opacity:1;stroke-dasharray:none;marker-start:none"
     d="m 361.17067,329.26481 7.81388,2.9847 31.78372,22.63678 4.95494,8.61036 -7.73842,14.66361 -3.26976,-1.43367 -3.65542,-1.21567 -4.30937,1.69356 -6.53952,1.89478 -10.1614,-0.71263 -0.98093,-0.64557 -9.94341,-9.25593 -4.79565,-32.34545 3.43744,-5.66758 3.4039,-1.20729"
     id="Wayne"
     inkscape:connector-curvature="0" />
  <path
     style="font-size:12px;fill:#d0d0d0;fill-rule:nonzero;stroke:#000000;stroke-width:1;stroke-linecap:butt;stroke-linejoin:bevel;stroke-miterlimit:4;stroke-opacity:1;stroke-dasharray:none;marker-start:none"
     d="m 349.64268,363.38766 9.4823,5.09747 9.94341,9.25593 5.43283,6.35506 -0.21798,2.33914 -1.21568,1.35821 -15.14988,10.24524 -0.26829,0 -8.50137,-1.14023 -15.40139,-18.73822 6.70719,-2.45651 3.44582,-4.6112 -0.37728,-2.71641 4.94656,-4.80403 1.17376,-0.18445"
     id="Pierce"
     inkscape:connector-curvature="0" />
  <path
     style="font-size:12px;fill:#d0d0d0;fill-rule:nonzero;stroke:#000000;stroke-width:1;stroke-linecap:butt;stroke-linejoin:bevel;stroke-miterlimit:4;stroke-opacity:1;stroke-dasharray:none;marker-start:none"
     d="m 397.98479,378.16026 -0.61203,17.6483 -5.05555,7.44499 -5.8688,1.85286 -1.62649,0.75456 -0.57011,0.91386 -0.44436,4.37644 -11.87173,-1.29113 -0.79648,7.25215 -4.67827,0.64557 -17.31295,-20.85938 8.50137,1.14023 0.26829,0 15.14988,-10.24524 1.21568,-1.35821 0.21798,-2.33914 -5.43283,-6.35506 0.98093,0.64557 10.1614,0.71263 6.53952,-1.89478 4.30937,-1.69356 3.65542,1.21567 3.26976,1.43367"
     id="Brantley"
     inkscape:connector-curvature="0" />
  <path
     style="font-size:12px;fill:#d0d0d0;fill-rule:nonzero;stroke:#000000;stroke-width:1;stroke-linecap:butt;stroke-linejoin:bevel;stroke-miterlimit:4;stroke-opacity:1;stroke-dasharray:none;marker-start:none"
     d="m 316.8445,374.83181 16.90213,3.32845 15.40139,18.73822 17.31295,20.85938 -26.07422,3.52128 2.94278,23.42488 22.33496,-2.75834 2.68288,0.30183 -2.60742,24.11236 -18.97298,1.16538 -1.58457,-3.21107 -1.77741,-9.59129 -1.89478,-12.47538 -9.89312,-14.21087 -5.78495,-4.30938 -3.17754,-3.21107 -8.275,-14.11864 1.18215,-19.84491 1.28275,-11.72083"
     id="Ware"
     inkscape:connector-curvature="0" />
  <path
     style="font-size:12px;fill:#d0d0d0;fill-rule:nonzero;stroke:#000000;stroke-width:1;stroke-linecap:butt;stroke-linejoin:bevel;stroke-miterlimit:4;stroke-opacity:1;stroke-dasharray:none;marker-start:none"
     d="m 383.80745,411.15127 6.3383,23.7267 -10.11109,5.89395 -0.80487,11.67891 0.41082,2.23014 1.44205,2.18822 2.83379,3.70573 1.21568,3.32006 0.0671,7.227 -0.49466,7.39468 -0.48627,7.48691 -10.5806,2.04569 -0.61203,-0.12576 -1.91994,-1.50912 -1.73548,-2.49004 -0.91386,-2.41459 -2.71641,-15.14988 2.60742,-24.11236 -2.68288,-0.30183 -22.33496,2.75834 -2.94278,-23.42488 26.07422,-3.52128 4.67827,-0.64557 0.79648,-7.25215 11.87173,1.29113"
     id="Charlton"
     inkscape:connector-curvature="0" />
  <path
     style="font-size:12px;fill:#d0d0d0;fill-opacity:1;fill-rule:nonzero;stroke:#000000;stroke-width:1;stroke-linecap:butt;stroke-linejoin:bevel;stroke-miterlimit:4;stroke-opacity:1;stroke-dasharray:none;marker-start:none"
     d="m 428.92172,407.82283 5.47475,32.63888 -1.42528,0.1593 -7.86418,0.94739 -5.75142,0.25991 -10.87404,-1.2073 -14.4037,-3.09369 -3.9321,-2.64935 -6.3383,-23.7267 0.44436,-4.37644 0.57011,-0.91386 1.62649,-0.75456 5.8688,-1.85286 5.05555,-7.44499 0.34374,1.28276 0.29344,0.41081 7.4366,2.28045 4.35129,0.17606 19.12389,7.86419"
     id="Camden"
     inkscape:connector-curvature="0" />
  <path
     style="font-size:12px;fill:#d0d0d0;fill-opacity:1;fill-rule:nonzero;stroke:#000000;stroke-width:1;stroke-linecap:butt;stroke-linejoin:bevel;stroke-miterlimit:4;stroke-opacity:1;stroke-dasharray:none;marker-start:none"
     d="m 440.55871,375.59476 -11.63699,32.22807 -19.12389,-7.86419 -4.35129,-0.17606 -7.4366,-2.28045 -0.29344,-0.41081 -0.34374,-1.28276 0.61203,-17.6483 7.73842,-14.66361 0.0671,0.34375 4.94655,4.67826 6.31315,3.81472 12.85266,2.4649 9.13856,1.13184 1.5175,-0.33536"
     id="Glynn"
     inkscape:connector-curvature="0" />
  <path
     style="font-size:12px;fill:#d0d0d0;fill-opacity:1;fill-rule:nonzero;stroke:#000000;stroke-width:1;stroke-linecap:butt;stroke-linejoin:bevel;stroke-miterlimit:4;stroke-opacity:1;stroke-dasharray:none;marker-start:none"
     d="m 413.72993,335.30967 2.9847,0.86355 4.49382,3.14399 2.34752,0.56173 6.61497,-2.80025 4.98009,0.20121 2.64934,0.86356 1.66003,0.79647 3.01824,2.49005 0.37728,0.75456 0.12576,2.9847 -2.42297,30.42552 -1.5175,0.33536 -9.13856,-1.13184 -12.85266,-2.4649 -6.31315,-3.81472 -4.94655,-4.67826 -0.0671,-0.34375 -4.95494,-8.61036 12.96166,-19.57662"
     id="McIntosh"
     inkscape:connector-curvature="0" />
  <path
     style="font-size:12px;fill:#d0d0d0;fill-rule:nonzero;stroke:#000000;stroke-width:1;stroke-linecap:butt;stroke-linejoin:bevel;stroke-miterlimit:4;stroke-opacity:1;stroke-dasharray:none;marker-start:none"
     d="m 71.595912,192.62248 9.373305,20.85937 -25.470575,13.33894 -8.761273,-31.62443 24.858543,-2.57388"
     id="Heard"
     inkscape:connector-curvature="0" />
  <path
     style="font-size:12px;fill:#d0d0d0;fill-rule:nonzero;stroke:#000000;stroke-width:1;stroke-linecap:butt;stroke-linejoin:bevel;stroke-miterlimit:4;stroke-opacity:1;stroke-dasharray:none;marker-start:none"
     d="m 32.719332,144.96786 10.396152,-0.97255 4.980092,-1.24921 14.445621,-1.47559 2.221759,9.86797 -0.37728,6.07839 -6.346683,6.99225 -13.682678,6.76588 -4.309373,0.37728 -7.32761,-26.38442"
     id="Haralson"
     inkscape:connector-curvature="0" />
  <path
     style="font-size:12px;fill:#d0d0d0;fill-rule:nonzero;stroke:#000000;stroke-width:1;stroke-linecap:butt;stroke-linejoin:bevel;stroke-miterlimit:4;stroke-opacity:1;stroke-dasharray:none;marker-start:none"
     d="m 60.420047,120.52851 11.142329,0.22637 -3.269757,14.73068 -6.329917,0.61203 0.578495,5.17292 -14.445621,1.47559 -4.980092,1.24921 -10.396152,0.97255 -1.852863,-6.60659 -3.437438,-12.35801 14.512694,-1.47558 -0.159296,-1.81094 18.637618,-2.18823"
     id="Polk"
     inkscape:connector-curvature="0" />
  <path
     style="font-size:12px;fill:#d0d0d0;fill-rule:nonzero;stroke:#000000;stroke-width:1;stroke-linecap:butt;stroke-linejoin:bevel;stroke-miterlimit:4;stroke-opacity:1;stroke-dasharray:none;marker-start:none"
     d="m 52.329493,67.734513 8.015098,20.406641 0.603647,4.91302 0.03354,14.630066 -1.810942,0.18444 1.249215,12.65983 -18.637618,2.18823 0.159296,1.81094 -14.512694,1.47558 -6.044859,-21.8403 6.614971,-0.6791 4.678269,-10.345846 4.644732,-2.657726 7.067707,-5.256764 0.721023,-2.188223 3.814717,-14.923508 3.403902,-0.37728"
     id="Floyd"
     inkscape:connector-curvature="0" />
  <path
     style="font-size:12px;fill:#d0d0d0;fill-rule:nonzero;stroke:#000000;stroke-width:1;stroke-linecap:butt;stroke-linejoin:bevel;stroke-miterlimit:4;stroke-opacity:1;stroke-dasharray:none;marker-start:none"
     d="m 48.925591,68.111793 -3.814717,14.923508 -0.721023,2.188223 -7.067707,5.256764 -4.644732,2.657726 -4.678269,10.345846 -6.614971,0.6791 -7.41145,-25.16036 -1.919935,-6.841339 36.872804,-4.049468"
     id="Chattooga"
     inkscape:connector-curvature="0" />
  <path
     style="font-size:12px;fill:#d0d0d0;fill-rule:nonzero;stroke:#000000;stroke-width:1;stroke-linecap:butt;stroke-linejoin:bevel;stroke-miterlimit:4;stroke-opacity:1;stroke-dasharray:none;marker-start:none"
     d="m 55.398035,23.525714 14.54623,-1.701951 -1.78579,6.950331 -5.541822,24.112366 -0.276672,3.596733 3.035006,4.602813 -11.838199,2.649342 -1.249215,-10.505144 -10.387768,1.131839 0.117376,-0.905472 1.433662,-4.426748 0.980928,-5.818492 5.525052,-1.660031 2.070846,-4.275836 3.328446,-12.089719 -0.226368,-1.618111 0.268288,-0.04192"
     id="Whitfield"
     inkscape:connector-curvature="0" />
  <path
     style="font-size:12px;fill:#d0d0d0;fill-rule:nonzero;stroke:#000000;stroke-width:1;stroke-linecap:butt;stroke-linejoin:bevel;stroke-miterlimit:4;stroke-opacity:1;stroke-dasharray:none;marker-start:none"
     d="m 30.220901,26.694864 24.908846,-3.12723 0.226368,1.618111 -3.328446,12.089719 -2.070846,4.275836 -5.525052,1.660031 -0.980928,5.818492 -13.229942,-22.334959"
     id="Catoosa"
     inkscape:connector-curvature="0" />
  <path
     style="font-size:12px;fill:#d0d0d0;fill-rule:nonzero;stroke:#000000;stroke-width:1;stroke-linecap:butt;stroke-linejoin:bevel;stroke-miterlimit:4;stroke-opacity:1;stroke-dasharray:none;marker-start:none"
     d="m 30.220901,26.694864 13.229942,22.334959 -1.433662,4.426748 -0.117376,0.905472 10.387768,-1.131839 1.249215,10.505144 -1.207295,3.999165 -3.403902,0.37728 -36.872804,4.049468 -1.056383,-3.714109 3.278141,-5.390908 2.45651,-10.094328 -0.477887,-4.083005 1.99539,-12.349623 3.361982,-8.660665 8.610361,-1.173759"
     id="Walker"
     inkscape:connector-curvature="0" />
  <path
     style="font-size:12px;fill:#d0d0d0;fill-rule:nonzero;stroke:#000000;stroke-width:1;stroke-linecap:butt;stroke-linejoin:bevel;stroke-miterlimit:4;stroke-opacity:1;stroke-dasharray:none;marker-start:none"
     d="m 21.61054,27.868623 -3.361982,8.660665 -1.99539,12.349623 0.477887,4.083005 -2.45651,10.094328 -3.278141,5.390908 L 3.8867771,43.320323 0.4828757,30.098765 12.119859,28.89147 21.61054,27.868623"
     id="Dade"
     inkscape:connector-curvature="0" />
  <path
     style="font-size:12px;fill:#d0d0d0;fill-rule:nonzero;stroke:#000000;stroke-width:1;stroke-linecap:butt;stroke-linejoin:bevel;stroke-miterlimit:4;stroke-opacity:1;stroke-dasharray:none;marker-start:none"
     d="m 378.47523,306.09983 2.3056,2.80026 5.06393,10.27877 0.25991,1.16538 12.92812,9.98533 13.94258,5.01363 0.75456,-0.0335 -12.96166,19.57662 -31.78372,-22.63678 9.49068,-26.14968"
     id="Long"
     inkscape:connector-curvature="0" />
  <path
     style="font-size:12px;fill:#d0d0d0;fill-rule:nonzero;stroke:#000000;stroke-width:1;stroke-linecap:butt;stroke-linejoin:bevel;stroke-miterlimit:4;stroke-opacity:1;stroke-dasharray:none;marker-start:none"
     d="m 343.82419,322.38155 17.34648,6.88326 -3.4039,1.20729 -3.43744,5.66758 4.79565,32.34545 -9.4823,-5.09747 -0.7881,-1.55104 -0.91385,-0.98093 -10.47161,-5.1813 -6.08678,-1.58458 -4.30099,-2.23014 -7.02578,-3.89017 -1.85287,-13.7246 8.08217,-1.08992 -1.47558,-10.81535 -0.51142,-2.9344 19.52632,2.97632"
     id="Appling"
     inkscape:connector-curvature="0" />
  <path
     style="font-size:12px;fill:#d0d0d0;fill-rule:nonzero;stroke:#000000;stroke-width:1;stroke-linecap:butt;stroke-linejoin:bevel;stroke-miterlimit:4;stroke-opacity:1;stroke-dasharray:none;marker-start:none"
     d="m 324.29787,319.40523 0.51142,2.9344 1.47558,10.81535 -8.08217,1.08992 1.85287,13.7246 -9.03795,5.44121 -19.04005,2.80025 -2.12115,-15.53554 15.76191,-13.41439 8.65228,-5.63404 5.48313,-2.07923 4.54413,-0.14253"
     id="Jeff Davis"
     inkscape:connector-curvature="0" />
  <path
     style="font-size:12px;fill:#d0d0d0;fill-rule:nonzero;stroke:#000000;stroke-width:1;stroke-linecap:butt;stroke-linejoin:bevel;stroke-miterlimit:4;stroke-opacity:1;stroke-dasharray:none;marker-start:none"
     d="m 118.83972,317.36792 0.86355,-0.1593 0.90547,0.76295 0.72102,6.14546 0.60365,7.29408 -0.0335,7.86418 1.24922,11.67891 -22.90507,2.22176 -15.00735,-5.25677 -0.25152,-8.08217 9.82604,-19.40894 24.02853,-3.06016"
     id="Stewart"
     inkscape:connector-curvature="0" />
  <path
     style="font-size:12px;fill:#d0d0d0;fill-rule:nonzero;stroke:#000000;stroke-width:1;stroke-linecap:butt;stroke-linejoin:bevel;stroke-miterlimit:4;stroke-opacity:1;stroke-dasharray:none;marker-start:none"
     d="m 119.70327,317.20862 2.57388,-0.30182 7.55398,5.41606 1.96186,2.37267 4.15846,1.31629 4.76211,-0.53658 1.05638,18.03397 -13.52338,6.83296 -5.09747,0.61203 -1.24922,-11.67891 0.0335,-7.86418 -0.60365,-7.29408 -0.72102,-6.14546 -0.90547,-0.76295"
     id="Webster"
     inkscape:connector-curvature="0" />
  <path
     style="font-size:12px;fill:#d0d0d0;fill-rule:nonzero;stroke:#000000;stroke-width:1;stroke-linecap:butt;stroke-linejoin:bevel;stroke-miterlimit:4;stroke-opacity:1;stroke-dasharray:none;marker-start:none"
     d="m 162.0592,312.41298 14.70553,4.52736 7.96479,14.32824 5.14778,12.35801 -37.8202,4.21715 0.55334,4.61958 -10.8405,-8.95411 -1.05638,-18.03397 -0.30183,-3.47097 21.64747,-9.59129"
     id="Sumter"
     inkscape:connector-curvature="0" />
  <path
     style="font-size:12px;fill:#d0d0d0;fill-rule:nonzero;stroke:#000000;stroke-width:1;stroke-linecap:butt;stroke-linejoin:bevel;stroke-miterlimit:4;stroke-opacity:1;stroke-dasharray:none;marker-start:none"
     d="m 240.20641,315.8085 14.88997,20.44856 3.32006,5.28191 -27.46596,3.74765 -12.08972,0.86355 -2.18822,-18.73823 -1.18214,-9.66674 10.70636,-1.40851 4.82918,-1.42528 1.63488,-1.0983 3.78118,-0.38567 1.00608,0.22637 2.75833,2.15469"
     id="Wilcox"
     inkscape:connector-curvature="0" />
  <path
     style="font-size:12px;fill:#d0d0d0;fill-rule:nonzero;stroke:#000000;stroke-width:1;stroke-linecap:butt;stroke-linejoin:bevel;stroke-miterlimit:4;stroke-opacity:1;stroke-dasharray:none;marker-start:none"
     d="m 276.82769,307.61733 28.79064,19.6437 -15.76191,13.41439 -13.94258,5.85203 -17.4974,-4.98848 -3.32006,-5.28191 21.73131,-28.63973"
     id="Telfair"
     inkscape:connector-curvature="0" />
  <path
     style="font-size:12px;fill:#d0d0d0;fill-rule:nonzero;stroke:#000000;stroke-width:1;stroke-linecap:butt;stroke-linejoin:bevel;stroke-miterlimit:4;stroke-opacity:1;stroke-dasharray:none;marker-start:none"
     d="m 292.81597,286.33876 6.14547,0.36889 0.8384,0.12576 0.75456,2.14631 3.21107,10.80696 0.69587,5.75142 2.70803,8.53491 0.93901,1.65165 0.41081,0.68748 5.75142,5.21485 -8.65228,5.63404 -28.79064,-19.6437 2.98471,-7.07609 13.00357,-14.20248"
     id="Wheeler"
     inkscape:connector-curvature="0" />
  <path
     style="font-size:12px;fill:#d0d0d0;fill-rule:nonzero;stroke:#000000;stroke-width:1;stroke-linecap:butt;stroke-linejoin:bevel;stroke-miterlimit:4;stroke-opacity:1;stroke-dasharray:none;marker-start:none"
     d="m 236.9618,298.0512 16.55001,-18.73823 17.42194,27.76779 8.87865,-6.53952 -2.98471,7.07609 -21.73131,28.63973 -14.88997,-20.44856 2.26368,-2.49005 0.26829,-0.87194 0.57011,-5.06393 -8.50976,-6.57305 2.16307,-2.75833"
     id="Dodge"
     inkscape:connector-curvature="0" />
  <path
     style="font-size:12px;fill:#d0d0d0;fill-rule:nonzero;stroke:#000000;stroke-width:1;stroke-linecap:butt;stroke-linejoin:bevel;stroke-miterlimit:4;stroke-opacity:1;stroke-dasharray:none;marker-start:none"
     d="m 236.9618,298.0512 -2.16307,2.75833 8.50976,6.57305 -0.57011,5.06393 -0.26829,0.87194 -2.26368,2.49005 -2.75833,-2.15469 -1.00608,-0.22637 -3.78118,0.38567 -1.63488,1.0983 -4.82918,1.42528 -10.70636,1.40851 -3.05178,-18.21842 8.98764,-13.5653 15.53554,12.08972"
     id="Pulaski"
     inkscape:connector-curvature="0" />
  <path
     style="font-size:12px;fill:#d0d0d0;fill-rule:nonzero;stroke:#000000;stroke-width:1;stroke-linecap:butt;stroke-linejoin:bevel;stroke-miterlimit:4;stroke-opacity:1;stroke-dasharray:none;marker-start:none"
     d="m 212.43862,299.52678 3.05178,18.21842 1.18214,9.66674 -31.94302,3.85664 -7.96479,-14.32824 14.57976,-14.91513 21.09413,-2.49843"
     id="Dooly"
     inkscape:connector-curvature="0" />
  <path
     style="font-size:12px;fill:#d0d0d0;fill-rule:nonzero;stroke:#000000;stroke-width:1;stroke-linecap:butt;stroke-linejoin:bevel;stroke-miterlimit:4;stroke-opacity:1;stroke-dasharray:none;marker-start:none"
     d="m 173.06739,280.78017 16.01343,2.15469 2.26367,19.09035 -14.57976,14.91513 -14.70553,-4.52736 -8.49298,-14.51269 16.1308,-18.40287 3.37037,1.28275"
     id="Macon"
     inkscape:connector-curvature="0" />
  <path
     style="font-size:12px;fill:#d0d0d0;fill-rule:nonzero;stroke:#000000;stroke-width:1;stroke-linecap:butt;stroke-linejoin:bevel;stroke-miterlimit:4;stroke-opacity:1;stroke-dasharray:none;marker-start:none"
     d="m 143.39643,296.34925 10.16979,1.55104 8.49298,14.51269 -21.64747,9.59129 -0.79648,-7.09286 1.13184,-5.10585 1.55943,-2.38106 -1.74388,-12.50892 2.83379,1.43367 z m 0,0 0,0"
     sodipodi:nodetypes="ccccccccccc"
     id="Schley"
     inkscape:connector-curvature="0" />
  <path
     style="font-size:12px;fill:#d0d0d0;fill-rule:nonzero;stroke:#000000;stroke-width:1;stroke-linecap:butt;stroke-linejoin:bevel;stroke-miterlimit:4;stroke-opacity:1;stroke-dasharray:none;marker-start:none"
     d="m 116.87786,284.59489 17.03628,-5.02201 6.6485,15.3427 1.74388,12.50892 -1.55943,2.38106 -1.13184,5.10585 0.79648,7.09286 0.30183,3.47097 -4.76211,0.53658 -4.15846,-1.31629 -1.96186,-2.37267 -7.55398,-5.41606 -2.57388,0.30182 -0.86355,0.1593 -1.96186,-32.77303"
     id="Marion"
     inkscape:connector-curvature="0" />
  <path
     style="font-size:12px;fill:#d0d0d0;fill-rule:nonzero;stroke:#000000;stroke-width:1;stroke-linecap:butt;stroke-linejoin:bevel;stroke-miterlimit:4;stroke-opacity:1;stroke-dasharray:none;marker-start:none"
     d="m 116.87786,284.59489 1.96186,32.77303 -24.02853,3.06016 0.21798,-0.31021 0.75456,-3.4039 -0.90547,-1.80256 -2.23014,-1.86125 -6.002939,-1.61811 -0.570112,-0.63718 -0.192832,-0.91386 1.014464,-3.85663 9.348149,-4.95494 9.93504,-2.83379 5.74303,-11.29324 4.95494,-2.34752"
     id="Chattahoochee"
     inkscape:connector-curvature="0" />
  <path
     style="font-size:12px;fill:#d0d0d0;fill-rule:nonzero;stroke:#000000;stroke-width:1;stroke-linecap:butt;stroke-linejoin:bevel;stroke-miterlimit:4;stroke-opacity:1;stroke-dasharray:none;marker-start:none"
     d="m 75.712453,281.45927 15.837364,-1.81094 0.301824,2.60742 19.199349,-2.34752 0.87193,7.03418 -5.74303,11.29324 -9.93504,2.83379 -9.348149,4.95494 -2.515198,-14.92351 -8.66905,-9.6416"
     id="Muscogee"
     inkscape:connector-curvature="0" />
  <path
     style="font-size:12px;fill:#d0d0d0;fill-rule:nonzero;stroke:#000000;stroke-width:1;stroke-linecap:butt;stroke-linejoin:bevel;stroke-miterlimit:4;stroke-opacity:1;stroke-dasharray:none;marker-start:none"
     d="m 145.6685,257.84995 8.30015,5.24838 20.12159,14.96543 -4.39322,1.43366 -16.1308,18.40287 -10.16979,-1.55104 -2.83379,-1.43367 -6.6485,-15.3427 11.75436,-21.72293"
     id="Taylor"
     inkscape:connector-curvature="0" />
  <path
     style="font-size:12px;fill:#d0d0d0;fill-rule:nonzero;stroke:#000000;stroke-width:1;stroke-linecap:butt;stroke-linejoin:bevel;stroke-miterlimit:4;stroke-opacity:1;stroke-dasharray:none;marker-start:none"
     d="m 124.0881,245.81892 0.80486,-0.31021 1.95347,0.4695 6.12032,3.9321 1.44204,1.84447 1.12346,2.19661 0.22637,0.79648 0.83001,0.64557 4.50221,1.69356 4.57766,0.76295 -11.75436,21.72293 -17.03628,5.02201 -4.95494,2.34752 -0.87193,-7.03418 -3.85664,-27.99415 16.89375,-6.09516"
     id="Talbot"
     inkscape:connector-curvature="0" />
  <path
     style="font-size:12px;fill:#d0d0d0;fill-rule:nonzero;stroke:#000000;stroke-width:1;stroke-linecap:butt;stroke-linejoin:bevel;stroke-miterlimit:4;stroke-opacity:1;stroke-dasharray:none;marker-start:none"
     d="m 92.346297,250.62294 14.848053,1.29114 3.85664,27.99415 -19.199349,2.34752 -0.301824,-2.60742 -15.837364,1.81094 -6.531131,-14.38693 -5.776573,-12.86105 28.941548,-3.58835"
     id="Harris"
     inkscape:connector-curvature="0" />
  <path
     style="font-size:12px;fill:#d0d0d0;fill-rule:nonzero;stroke:#000000;stroke-width:1;stroke-linecap:butt;stroke-linejoin:bevel;stroke-miterlimit:4;stroke-opacity:1;stroke-dasharray:none;marker-start:none"
     d="m 80.969217,213.48185 7.260539,2.80026 4.116541,34.34083 -28.941548,3.58835 -7.260539,-25.12682 -0.645568,-2.26368 25.470575,-13.33894"
     id="Troup"
     inkscape:connector-curvature="0" />
  <path
     style="font-size:12px;fill:#d0d0d0;fill-rule:nonzero;stroke:#000000;stroke-width:1;stroke-linecap:butt;stroke-linejoin:bevel;stroke-miterlimit:4;stroke-opacity:1;stroke-dasharray:none;marker-start:none"
     d="m 64.762956,151.13848 12.50892,1.96185 10.882424,21.35403 -2.942782,7.16832 -13.615606,10.9998 -24.858543,2.57388 -1.626495,-5.82687 -5.063932,-18.01721 4.309373,-0.37728 13.682678,-6.76588 6.346683,-6.99225 0.37728,-6.07839"
     id="Carroll"
     inkscape:connector-curvature="0" />
  <path
     style="font-size:12px;fill:#d0d0d0;fill-rule:nonzero;stroke:#000000;stroke-width:1;stroke-linecap:butt;stroke-linejoin:bevel;stroke-miterlimit:4;stroke-opacity:1;stroke-dasharray:none;marker-start:none"
     d="m 71.562376,120.75488 16.399092,-1.59296 1.551039,14.24441 1.450431,-0.18445 1.651646,15.30079 -15.342708,4.57766 -12.50892,-1.96185 -2.221759,-9.86797 -0.578495,-5.17292 6.329917,-0.61203 3.269757,-14.73068"
     id="Paulding"
     inkscape:connector-curvature="0" />
  <path
     style="font-size:12px;fill:#d0d0d0;fill-rule:nonzero;stroke:#000000;stroke-width:1;stroke-linecap:butt;stroke-linejoin:bevel;stroke-miterlimit:4;stroke-opacity:1;stroke-dasharray:none;marker-start:none"
     d="m 86.452349,19.794837 1.961855,14.311477 3.403901,2.607422 0.226368,0.33536 -0.03354,0.343744 -1.894783,3.252989 -2.339134,2.565502 -1.056383,4.988476 2.112766,15.686453 -23.458416,-2.800254 -3.035006,-4.602813 0.276672,-3.596733 5.541822,-24.112366 1.78579,-6.950331 3.009854,-0.37728 13.49823,-1.651646"
     id="Murray"
     inkscape:connector-curvature="0" />
  <path
     style="font-size:12px;fill:#d0d0d0;fill-rule:nonzero;stroke:#000000;stroke-width:1;stroke-linecap:butt;stroke-linejoin:bevel;stroke-miterlimit:4;stroke-opacity:1;stroke-dasharray:none;marker-start:none"
     d="m 65.374987,61.086006 23.458416,2.800254 0.452736,3.697341 1.852862,14.705525 -30.79441,5.852028 -8.015098,-20.406641 1.207295,-3.999165 11.838199,-2.649342"
     id="Gordon"
     inkscape:connector-curvature="0" />
  <path
     style="font-size:12px;fill:#d0d0d0;fill-rule:nonzero;stroke:#000000;stroke-width:1;stroke-linecap:butt;stroke-linejoin:bevel;stroke-miterlimit:4;stroke-opacity:1;stroke-dasharray:none;marker-start:none"
     d="m 91.139001,82.289126 3.814719,36.193694 -23.391344,2.27206 -11.142329,-0.22637 -1.249215,-12.65983 1.810942,-0.18444 -0.03354,-14.630066 -0.603647,-4.91302 30.79441,-5.852028"
     id="Bartow"
     inkscape:connector-curvature="0" />
  <path
     style="font-size:12px;fill:#d0d0d0;fill-rule:nonzero;stroke:#000000;stroke-width:1;stroke-linecap:butt;stroke-linejoin:bevel;stroke-miterlimit:4;stroke-opacity:1;stroke-dasharray:none;marker-start:none"
     d="m 94.95372,118.48282 21.31211,-2.07923 3.59673,8.12409 -3.18591,13.15449 -1.01447,4.22553 -0.52819,1.55942 -5.58374,7.0174 -3.06854,3.21946 -13.867126,-5.18131 -1.651646,-15.30079 -1.450431,0.18445 -1.551039,-14.24441 6.992252,-0.6791"
     id="Cobb"
     inkscape:connector-curvature="0" />
  <path
     style="font-size:12px;fill:#d0d0d0;fill-rule:nonzero;stroke:#000000;stroke-width:1;stroke-linecap:butt;stroke-linejoin:bevel;stroke-miterlimit:4;stroke-opacity:1;stroke-dasharray:none;marker-start:none"
     d="m 77.271876,153.10033 15.342708,-4.57766 13.867126,5.18131 -5.60051,8.96249 -8.459447,5.35737 -3.437438,3.96563 -0.721023,1.06476 -0.108992,1.40013 -10.882424,-21.35403"
     id="Douglas"
     inkscape:connector-curvature="0" />
  <path
     style="font-size:12px;fill:#d0d0d0;fill-rule:nonzero;stroke:#000000;stroke-width:1;stroke-linecap:butt;stroke-linejoin:bevel;stroke-miterlimit:4;stroke-opacity:1;stroke-dasharray:none;marker-start:none"
     d="m 85.211518,181.62268 21.605552,-1.57619 1.29113,11.18424 5.77658,5.50829 4.04947,4.98847 2.07923,3.5129 0.0671,3.96563 -31.850794,7.07609 -7.260539,-2.80026 -9.373305,-20.85937 13.615606,-10.9998"
     id="Coweta"
     inkscape:connector-curvature="0" />
  <path
     style="font-size:12px;fill:#d0d0d0;fill-rule:nonzero;stroke:#000000;stroke-width:1;stroke-linecap:butt;stroke-linejoin:bevel;stroke-miterlimit:4;stroke-opacity:1;stroke-dasharray:none;marker-start:none"
     d="m 121.02794,213.22195 0.10899,23.22366 2.95117,9.37331 -16.89375,6.09516 -14.848053,-1.29114 -4.116541,-34.34083 31.850794,-7.07609 0.94739,4.01593"
     id="Meriwether"
     inkscape:connector-curvature="0" />
  <path
     style="font-size:12px;fill:#d0d0d0;fill-rule:nonzero;stroke:#000000;stroke-width:1;stroke-linecap:butt;stroke-linejoin:bevel;stroke-miterlimit:4;stroke-opacity:1;stroke-dasharray:none;marker-start:none"
     d="m 121.02794,213.22195 3.73926,-3.26137 5.17292,-0.55335 2.0457,1.76902 11.2094,-1.28275 0.69587,21.54687 -22.75416,5.00524 -0.10899,-23.22366"
     id="Pike"
     inkscape:connector-curvature="0" />
  <path
     style="font-size:12px;fill:#d0d0d0;fill-rule:nonzero;stroke:#000000;stroke-width:1;stroke-linecap:butt;stroke-linejoin:bevel;stroke-miterlimit:4;stroke-opacity:1;stroke-dasharray:none;marker-start:none"
     d="m 143.89109,231.44037 13.94258,4.67827 1.01446,8.92057 -4.87948,18.05912 -8.30015,-5.24838 -4.57766,-0.76295 -4.50221,-1.69356 -0.83001,-0.64557 -0.22637,-0.79648 -1.12346,-2.19661 -1.44204,-1.84447 -6.12032,-3.9321 -1.95347,-0.4695 -0.80486,0.31021 -2.95117,-9.37331 22.75416,-5.00524"
     id="Upson"
     inkscape:connector-curvature="0" />
  <path
     style="font-size:12px;fill:#d0d0d0;fill-rule:nonzero;stroke:#000000;stroke-width:1;stroke-linecap:butt;stroke-linejoin:bevel;stroke-miterlimit:4;stroke-opacity:1;stroke-dasharray:none;marker-start:none"
     d="m 158.84813,245.03921 20.85938,-2.49844 19.35026,14.58815 0,0.0335 -24.96753,20.9013 -20.12159,-14.96543 4.87948,-18.05912"
     id="Crawford"
     inkscape:connector-curvature="0" />
  <path
     style="font-size:12px;fill:#d0d0d0;fill-rule:nonzero;stroke:#000000;stroke-width:1;stroke-linecap:butt;stroke-linejoin:bevel;stroke-miterlimit:4;stroke-opacity:1;stroke-dasharray:none;marker-start:none"
     d="m 174.09024,278.06376 24.96753,-20.9013 0.54496,17.3884 -0.13415,1.19891 -5.70111,8.84512 -1.66003,1.05638 -0.90547,0.20122 -2.12115,-2.91763 -16.01343,-2.15469 -3.3733,-1.28116 4.39615,-1.43525"
     sodipodi:nodetypes="ccccccccccc"
     id="Peach"
     inkscape:connector-curvature="0" />
  <path
     style="font-size:12px;fill:#d0d0d0;fill-rule:nonzero;stroke:#000000;stroke-width:1;stroke-linecap:butt;stroke-linejoin:bevel;stroke-miterlimit:4;stroke-opacity:1;stroke-dasharray:none;marker-start:none"
     d="m 199.05777,257.16246 0,-0.0335 9.70028,1.77741 11.98073,21.61394 0.68748,5.44121 -8.98764,13.5653 -21.09413,2.49843 -2.26367,-19.09035 2.12115,2.91763 0.90547,-0.20122 1.66003,-1.05638 5.70111,-8.84512 0.13415,-1.19891 -0.54496,-17.3884"
     id="Houston"
     inkscape:connector-curvature="0" />
  <path
     style="font-size:12px;fill:#d0d0d0;fill-rule:nonzero;stroke:#000000;stroke-width:1;stroke-linecap:butt;stroke-linejoin:bevel;stroke-miterlimit:4;stroke-opacity:1;stroke-dasharray:none;marker-start:none"
     d="m 253.51181,279.31297 -16.55001,18.73823 -15.53554,-12.08972 -0.68748,-5.44121 22.52779,-17.46386 10.24524,16.25656"
     id="Bleckley"
     inkscape:connector-curvature="0" />
  <path
     style="font-size:12px;fill:#d0d0d0;fill-rule:nonzero;stroke:#000000;stroke-width:1;stroke-linecap:butt;stroke-linejoin:bevel;stroke-miterlimit:4;stroke-opacity:1;stroke-dasharray:none;marker-start:none"
     d="m 243.26657,263.05641 22.41041,-16.62546 8.35884,-2.00378 7.32762,2.15469 11.67051,6.5479 0.79648,9.54937 2.60743,0.88032 -3.62189,22.77931 -13.00357,14.20248 -8.87865,6.53952 -17.42194,-27.76779 -10.24524,-16.25656"
     id="Laurens"
     inkscape:connector-curvature="0" />
  <path
     style="font-size:12px;fill:#d0d0d0;fill-rule:nonzero;stroke:#000000;stroke-width:1;stroke-linecap:butt;stroke-linejoin:bevel;stroke-miterlimit:4;stroke-opacity:1;stroke-dasharray:none;marker-start:none"
     d="m 226.57404,227.87717 16.31525,-10.3207 1.3582,-1.12345 1.35821,0.0754 6.09517,5.73466 4.86271,7.98156 4.05785,1.40013 1.50912,0.939 2.41459,3.78957 1.28275,4.44351 -0.15091,5.63405 -22.41041,16.62546 -20.742,-31.58251 4.04947,-3.59673"
     id="Wilkinson"
     inkscape:connector-curvature="0" />
  <path
     style="font-size:12px;fill:#d0d0d0;fill-rule:nonzero;stroke:#000000;stroke-width:1;stroke-linecap:butt;stroke-linejoin:bevel;stroke-miterlimit:4;stroke-opacity:1;stroke-dasharray:none;marker-start:none"
     d="m 213.76329,238.49131 8.76128,-7.01741 20.742,31.58251 -22.52779,17.46386 -11.98073,-21.61394 0.65395,-8.16601 5.81849,-7.52044 0.93901,-2.75834 -2.40621,-1.97023"
     id="Twiggs"
     inkscape:connector-curvature="0" />
  <path
     style="font-size:12px;fill:#d0d0d0;fill-rule:nonzero;stroke:#000000;stroke-width:1;stroke-linecap:butt;stroke-linejoin:bevel;stroke-miterlimit:4;stroke-opacity:1;stroke-dasharray:none;marker-start:none"
     d="m 194.56395,229.20184 1.81932,3.69734 3.7728,2.65773 5.39091,-0.67911 3.144,0.71264 5.07231,2.90087 2.40621,1.97023 -0.93901,2.75834 -5.81849,7.52044 -0.65395,8.16601 -9.70028,-1.77741 -19.35026,-14.58815 14.85644,-13.33893"
     id="Bibb"
     inkscape:connector-curvature="0" />
  <path
     style="font-size:12px;fill:#d0d0d0;fill-rule:nonzero;stroke:#000000;stroke-width:1;stroke-linecap:butt;stroke-linejoin:bevel;stroke-miterlimit:4;stroke-opacity:1;stroke-dasharray:none;marker-start:none"
     d="m 230.27138,198.78471 1.85286,-0.18445 14.42885,1.91155 0.28506,0.42759 0.0587,0.63718 -0.109,0.87194 -0.49465,0.34374 -0.33536,0.90547 -0.35213,4.00755 0.27667,0.89709 1.89479,2.84217 2.24691,-1.89478 1.63488,-1.99539 0.0419,14.68876 -6.09517,-5.73466 -1.35821,-0.0754 -1.3582,1.12345 -16.31525,10.3207 -10.12787,-27.05515 13.82521,-2.03731"
     id="Baldwin"
     inkscape:connector-curvature="0" />
  <path
     style="font-size:12px;fill:#d0d0d0;fill-rule:nonzero;stroke:#000000;stroke-width:1;stroke-linecap:butt;stroke-linejoin:bevel;stroke-miterlimit:4;stroke-opacity:1;stroke-dasharray:none;marker-start:none"
     d="m 216.44617,200.82202 10.12787,27.05515 -4.04947,3.59673 -8.76128,7.01741 -5.07231,-2.90087 -3.144,-0.71264 -5.39091,0.67911 -3.7728,-2.65773 -1.81932,-3.69734 -11.93881,-18.05912 23.61771,-7.44499 10.20332,-2.87571"
     id="Jones"
     inkscape:connector-curvature="0" />
  <path
     style="font-size:12px;fill:#d0d0d0;fill-rule:nonzero;stroke:#000000;stroke-width:1;stroke-linecap:butt;stroke-linejoin:bevel;stroke-miterlimit:4;stroke-opacity:1;stroke-dasharray:none;marker-start:none"
     d="m 161.50586,206.0704 19.91199,-0.0755 1.20729,5.14777 11.93881,18.05912 -14.85644,13.33893 -20.85938,2.49844 -1.01446,-8.92057 6.22092,-0.67911 0.68749,-1.89478 -3.23622,-27.47435"
     id="Monroe"
     inkscape:connector-curvature="0" />
  <path
     style="font-size:12px;fill:#d0d0d0;fill-rule:nonzero;stroke:#000000;stroke-width:1;stroke-linecap:butt;stroke-linejoin:bevel;stroke-miterlimit:4;stroke-opacity:1;stroke-dasharray:none;marker-start:none"
     d="m 161.50586,206.0704 3.23622,27.47435 -0.68749,1.89478 -6.22092,0.67911 -13.94258,-4.67827 -0.69587,-21.54687 10.93273,-2.90924 7.37791,-0.91386"
     id="Lamar"
     inkscape:connector-curvature="0" />
  <path
     style="font-size:12px;fill:#d0d0d0;fill-rule:nonzero;stroke:#000000;stroke-width:1;stroke-linecap:butt;stroke-linejoin:bevel;stroke-miterlimit:4;stroke-opacity:1;stroke-dasharray:none;marker-start:none"
     d="m 128.54838,193.78785 2.9847,-0.36889 23.19851,3.06015 -0.60364,10.50515 -10.93273,2.90924 -11.2094,1.28275 -2.0457,-1.76902 -5.17292,0.55335 -3.73926,3.26137 -0.94739,-4.01593 -0.0671,-3.96563 8.5349,-11.45254"
     id="Spalding"
     inkscape:connector-curvature="0" />
  <path
     style="font-size:12px;fill:#d0d0d0;fill-rule:nonzero;stroke:#000000;stroke-width:1;stroke-linecap:butt;stroke-linejoin:bevel;stroke-miterlimit:4;stroke-opacity:1;stroke-dasharray:none;marker-start:none"
     d="m 106.81707,180.04649 12.81913,-6.89165 8.91218,20.63301 -8.5349,11.45254 -2.07923,-3.5129 -4.04947,-4.98847 -5.77658,-5.50829 -1.29113,-11.18424"
     id="Fayette"
     inkscape:connector-curvature="0" />
  <path
     style="font-size:12px;fill:#d0d0d0;fill-rule:nonzero;stroke:#000000;stroke-width:1;stroke-linecap:butt;stroke-linejoin:bevel;stroke-miterlimit:4;stroke-opacity:1;stroke-dasharray:none;marker-start:none"
     d="m 134.10697,160.88068 1.8864,1.50911 0.87193,5.25677 0.10061,3.58835 -1.16537,12.58437 -0.75456,0.98093 -4.26746,1.9367 0.75456,6.68205 -2.9847,0.36889 -8.91218,-20.63301 8.34207,-11.6286 6.1287,-0.64556"
     id="Clayton"
     inkscape:connector-curvature="0" />
  <path
     style="font-size:12px;fill:#d0d0d0;fill-rule:nonzero;stroke:#000000;stroke-width:1;stroke-linecap:butt;stroke-linejoin:bevel;stroke-miterlimit:4;stroke-opacity:1;stroke-dasharray:none;marker-start:none"
     d="m 168.59872,177.96726 6.53951,8.23308 6.27962,19.79461 -19.91199,0.0755 -7.37791,0.91386 0.60364,-10.50515 13.86713,-18.51185"
     id="Butts"
     inkscape:connector-curvature="0" />
  <path
     style="font-size:12px;fill:#d0d0d0;fill-rule:nonzero;stroke:#000000;stroke-width:1;stroke-linecap:butt;stroke-linejoin:bevel;stroke-miterlimit:4;stroke-opacity:1;stroke-dasharray:none;marker-start:none"
     d="m 134.10697,160.88068 8.6439,-0.9474 14.10187,11.30163 11.74598,6.73235 -13.86713,18.51185 -23.19851,-3.06015 -0.75456,-6.68205 4.26746,-1.9367 0.75456,-0.98093 1.16537,-12.58437 -0.10061,-3.58835 -0.87193,-5.25677 -1.8864,-1.50911"
     id="Henry"
     inkscape:connector-curvature="0" />
  <path
     style="font-size:12px;fill:#d0d0d0;fill-rule:nonzero;stroke:#000000;stroke-width:1;stroke-linecap:butt;stroke-linejoin:bevel;stroke-miterlimit:4;stroke-opacity:1;stroke-dasharray:none;marker-start:none"
     d="m 130.35932,127.32793 25.20229,19.28319 -2.5655,3.20268 -5.13939,11.06688 -5.10585,-0.9474 -8.6439,0.9474 -6.1287,0.64556 -0.90547,-7.97317 -0.72102,-6.53952 -0.10061,-1.02285 -2.19661,-18.24357 6.30476,-0.4192"
     id="DeKalb"
     inkscape:connector-curvature="0" />
  <path
     style="font-size:12px;fill:#d0d0d0;fill-rule:nonzero;stroke:#000000;stroke-width:1;stroke-linecap:butt;stroke-linejoin:bevel;stroke-miterlimit:4;stroke-opacity:1;stroke-dasharray:none;marker-start:none"
     d="m 128.88374,102.50293 16.09727,12.81074 -14.62169,12.01426 -6.30476,0.4192 2.19661,18.24357 0.10061,1.02285 0.72102,6.53952 0.90547,7.97317 -8.34207,11.6286 -12.81913,6.89165 -21.605552,1.57619 2.942782,-7.16832 0.108992,-1.40013 0.721023,-1.06476 3.437438,-3.96563 8.459447,-5.35737 5.60051,-8.96249 3.06854,-3.21946 5.58374,-7.0174 0.52819,-1.55942 1.01447,-4.22553 3.18591,-13.15449 -3.59673,-8.12409 12.61791,-13.90066"
     id="Fulton"
     inkscape:connector-curvature="0" />
  <path
     style="font-size:12px;fill:#d0d0d0;fill-rule:nonzero;stroke:#000000;stroke-width:1;stroke-linecap:butt;stroke-linejoin:bevel;stroke-miterlimit:4;stroke-opacity:1;stroke-dasharray:none;marker-start:none"
     d="m 126.42723,81.450727 0.49466,4.95494 1.96185,16.097263 -12.61791,13.90066 -21.31211,2.07923 -3.814719,-36.193694 35.288229,-0.838399"
     id="Cherokee"
     inkscape:connector-curvature="0" />
  <path
     style="font-size:12px;fill:#d0d0d0;fill-rule:nonzero;stroke:#000000;stroke-width:1;stroke-linecap:butt;stroke-linejoin:bevel;stroke-miterlimit:4;stroke-opacity:1;stroke-dasharray:none;marker-start:none"
     d="m 89.286139,67.583601 8.233081,-1.173759 16.62546,-1.810943 2.07923,-1.819326 0.19283,1.559422 3.36198,8.425914 5.55021,-0.637183 1.0983,9.323001 -35.288229,0.838399 -1.852862,-14.705525"
     id="Pickens"
     inkscape:connector-curvature="0" />
  <path
     style="font-size:12px;fill:#d0d0d0;fill-rule:nonzero;stroke:#000000;stroke-width:1;stroke-linecap:butt;stroke-linejoin:bevel;stroke-miterlimit:4;stroke-opacity:1;stroke-dasharray:none;marker-start:none"
     d="m 128.54838,55.225594 0.93901,1.551039 20.86776,17.530931 3.13561,8.920569 -26.56887,3.177534 -0.49466,-4.95494 -1.0983,-9.323001 -5.55021,0.637183 -3.36198,-8.425914 -0.19283,-1.559422 12.32447,-7.553979"
     id="Dawson"
     inkscape:connector-curvature="0" />
  <path
     style="font-size:12px;fill:#d0d0d0;fill-rule:nonzero;stroke:#000000;stroke-width:1;stroke-linecap:butt;stroke-linejoin:bevel;stroke-miterlimit:4;stroke-opacity:1;stroke-dasharray:none;marker-start:none"
     d="m 126.92189,86.405667 26.56887,-3.177534 -7.07609,19.073577 -1.43366,13.01196 -16.09727,-12.81074 -1.96185,-16.097263"
     id="Forsyth"
     inkscape:connector-curvature="0" />
  <path
     style="font-size:12px;fill:#d0d0d0;fill-rule:nonzero;stroke:#000000;stroke-width:1;stroke-linecap:butt;stroke-linejoin:bevel;stroke-miterlimit:4;stroke-opacity:1;stroke-dasharray:none;marker-start:none"
     d="m 168.63226,103.90305 4.43513,21.06898 -14.25279,17.58124 -3.25299,4.05785 -25.20229,-19.28319 14.62169,-12.01426 1.43366,-13.01196 22.21759,1.60134"
     id="Gwinnett"
     inkscape:connector-curvature="0" />
  <path
     style="font-size:12px;fill:#d0d0d0;fill-rule:nonzero;stroke:#000000;stroke-width:1;stroke-linecap:butt;stroke-linejoin:bevel;stroke-miterlimit:4;stroke-opacity:1;stroke-dasharray:none;marker-start:none"
     d="m 165.35411,146.29253 -8.50137,24.94238 -14.10187,-11.30163 5.10585,0.9474 5.13939,-11.06688 2.5655,-3.20268 3.25299,-4.05785 6.53951,3.73926"
     id="Rockdale"
     inkscape:connector-curvature="0" />
  <path
     style="font-size:12px;fill:#d0d0d0;fill-rule:nonzero;stroke:#000000;stroke-width:1;stroke-linecap:butt;stroke-linejoin:bevel;stroke-miterlimit:4;stroke-opacity:1;stroke-dasharray:none;marker-start:none"
     d="m 203.55159,175.27599 2.69126,28.42174 -23.61771,7.44499 -1.20729,-5.14777 -6.27962,-19.79461 13.90905,-19.08197 14.50431,8.15762"
     id="Jasper"
     inkscape:connector-curvature="0" />
  <path
     style="font-size:12px;fill:#d0d0d0;fill-rule:nonzero;stroke:#000000;stroke-width:1;stroke-linecap:butt;stroke-linejoin:bevel;stroke-miterlimit:4;stroke-opacity:1;stroke-dasharray:none;marker-start:none"
     d="m 165.35411,146.29253 22.82123,13.1964 0.87194,7.62944 -13.90905,19.08197 -6.53951,-8.23308 -11.74598,-6.73235 8.50137,-24.94238"
     id="Newton"
     inkscape:connector-curvature="0" />
  <path
     style="font-size:12px;fill:#d0d0d0;fill-rule:nonzero;stroke:#000000;stroke-width:1;stroke-linecap:butt;stroke-linejoin:bevel;stroke-miterlimit:4;stroke-opacity:1;stroke-dasharray:none;marker-start:none"
     d="m 173.06739,124.97203 13.78328,0.80486 13.75814,7.89773 -12.43347,25.81431 -22.82123,-13.1964 -6.53951,-3.73926 14.25279,-17.58124"
     id="Walton"
     inkscape:connector-curvature="0" />
  <path
     style="font-size:12px;fill:#d0d0d0;fill-rule:nonzero;stroke:#000000;stroke-width:1;stroke-linecap:butt;stroke-linejoin:bevel;stroke-miterlimit:4;stroke-opacity:1;stroke-dasharray:none;marker-start:none"
     d="m 168.63226,103.90305 3.48774,4.37645 1.50912,0.94739 8.35045,1.66842 2.14631,-0.26829 7.32761,0.0335 1.03123,0.61204 3.21107,6.79941 -8.84512,7.70489 -13.78328,-0.80486 -4.43513,-21.06898"
     id="Barrow"
     inkscape:connector-curvature="0" />
  <path
     style="font-size:12px;fill:#d0d0d0;fill-rule:nonzero;stroke:#000000;stroke-width:1;stroke-linecap:butt;stroke-linejoin:bevel;stroke-miterlimit:4;stroke-opacity:1;stroke-dasharray:none;marker-start:none"
     d="m 204.26423,91.536671 6.01132,16.399089 -14.57976,10.13624 -3.21107,-6.79941 -1.03123,-0.61204 -7.32761,-0.0335 -2.14631,0.26829 -8.35045,-1.66842 -1.50912,-0.94739 -3.48774,-4.37645 15.0828,-20.373093 2.75833,2.230142 1.81933,1.173759 1.05638,0.37728 3.84826,-0.754559 3.28652,-1.064768 5.52505,4.124925 2.2553,1.919935"
     id="Jackson"
     inkscape:connector-curvature="0" />
  <path
     style="font-size:12px;fill:#d0d0d0;fill-rule:nonzero;stroke:#000000;stroke-width:1;stroke-linecap:butt;stroke-linejoin:bevel;stroke-miterlimit:4;stroke-opacity:1;stroke-dasharray:none;marker-start:none"
     d="m 210.27555,107.93576 9.60806,3.26137 -0.72102,0.0335 -0.49466,5.02201 0.0755,0.31021 0.4192,0.939 3.6638,3.69734 -2.26368,6.47245 -24.86692,-9.59968 14.57976,-10.13624"
     id="Clarke"
     inkscape:connector-curvature="0" />
  <path
     style="font-size:12px;fill:#d0d0d0;fill-rule:nonzero;stroke:#000000;stroke-width:1;stroke-linecap:butt;stroke-linejoin:bevel;stroke-miterlimit:4;stroke-opacity:1;stroke-dasharray:none;marker-start:none"
     d="m 186.85067,125.77689 8.84512,-7.70489 24.86692,9.59968 0.7881,9.36492 -10.20332,8.30854 -10.53868,-11.67052 -13.75814,-7.89773"
     id="Oconee"
     inkscape:connector-curvature="0" />
  <path
     style="font-size:12px;fill:#d0d0d0;fill-rule:nonzero;stroke:#000000;stroke-width:1;stroke-linecap:butt;stroke-linejoin:bevel;stroke-miterlimit:4;stroke-opacity:1;stroke-dasharray:none;marker-start:none"
     d="m 211.14749,145.34514 14.29471,21.65585 -21.89061,8.275 -14.50431,-8.15762 -0.87194,-7.62944 12.43347,-25.81431 10.53868,11.67052"
     id="Morgan"
     inkscape:connector-curvature="0" />
  <path
     style="font-size:12px;fill:#d0d0d0;fill-rule:nonzero;stroke:#000000;stroke-width:1;stroke-linecap:butt;stroke-linejoin:bevel;stroke-miterlimit:4;stroke-opacity:1;stroke-dasharray:none;marker-start:none"
     d="m 203.55159,175.27599 21.89061,-8.275 12.15679,12.39993 1.29113,0.72102 0.66234,0.59527 0.16768,0.34374 -0.75456,3.55481 -3.59673,2.86733 -2.45651,1.28275 -1.85287,2.04569 -0.98092,6.45568 0.0335,1.0983 0.1593,0.4192 -13.82521,2.03731 -10.20332,2.87571 -2.69126,-28.42174"
     id="Putnam"
     inkscape:connector-curvature="0" />
  <path
     style="font-size:12px;fill:#d0d0d0;fill-rule:nonzero;stroke:#000000;stroke-width:1;stroke-linecap:butt;stroke-linejoin:bevel;stroke-miterlimit:4;stroke-opacity:1;stroke-dasharray:none;marker-start:none"
     d="m 264.08402,166.09552 2.87571,1.47558 4.76211,12.01427 3.78118,5.7095 0.89709,1.54265 -2.64096,0.38566 -6.14546,5.3993 -0.91386,1.81932 -0.72102,3.0937 -0.61203,1.78579 -0.93063,1.23244 -8.8535,6.43053 -3.9237,0.57011 -1.63488,1.99539 -2.24691,1.89478 -1.89479,-2.84217 -0.27667,-0.89709 0.35213,-4.00755 0.33536,-0.90547 0.49465,-0.34374 0.109,-0.87194 -0.0587,-0.63718 -0.28506,-0.42759 -14.42885,-1.91155 -1.85286,0.18445 -0.1593,-0.4192 -0.0335,-1.0983 0.98092,-6.45568 1.85287,-2.04569 2.45651,-1.28275 3.59673,-2.86733 0.75456,-3.55481 -0.16768,-0.34374 -0.66234,-0.59527 -1.29113,-0.72102 11.78789,-14.0935 14.69714,0.7881"
     id="Hancock"
     inkscape:connector-curvature="0" />
  <path
     style="font-size:12px;fill:#d0d0d0;fill-rule:nonzero;stroke:#000000;stroke-width:1;stroke-linecap:butt;stroke-linejoin:bevel;stroke-miterlimit:4;stroke-opacity:1;stroke-dasharray:none;marker-start:none"
     d="m 251.17267,136.09759 6.53113,9.89311 1.28276,1.36659 0.19283,0 10.95788,-1.17375 6.87487,0.90547 -2.90924,4.49382 -8.35046,7.30246 -2.94278,4.60281 -0.11738,0.45273 1.39174,2.15469 -14.69714,-0.7881 -1.7774,-24.37227 3.56319,-4.83756"
     id="Taliaferro"
     inkscape:connector-curvature="0" />
  <path
     style="font-size:12px;fill:#d0d0d0;fill-rule:nonzero;stroke:#000000;stroke-width:1;stroke-linecap:butt;stroke-linejoin:bevel;stroke-miterlimit:4;stroke-opacity:1;stroke-dasharray:none;marker-start:none"
     d="m 247.60948,140.93515 1.7774,24.37227 -11.78789,14.0935 -12.15679,-12.39993 -14.29471,-21.65585 10.20332,-8.30854 26.25867,3.89855"
     id="Greene"
     inkscape:connector-curvature="0" />
  <path
     style="font-size:12px;fill:#d0d0d0;fill-rule:nonzero;stroke:#000000;stroke-width:1;stroke-linecap:butt;stroke-linejoin:bevel;stroke-miterlimit:4;stroke-opacity:1;stroke-dasharray:none;marker-start:none"
     d="m 244.1385,103.03112 18.46994,5.40768 -5.58374,4.19199 -1.81094,2.18822 -4.76211,8.66067 -3.37037,7.4366 -0.0335,0.52819 4.12492,4.65312 -3.56319,4.83756 -26.25867,-3.89855 -0.7881,-9.36492 2.26368,-6.47245 -3.6638,-3.69734 -0.4192,-0.939 -0.0755,-0.31021 0.49466,-5.02201 0.72102,-0.0335 10.30393,-6.58144 0.64556,-0.0755 1.29114,0.75456 4.83756,1.40851 1.2073,0.14253 5.9694,-3.81472"
     id="Oglethorpe"
     inkscape:connector-curvature="0" />
  <path
     style="font-size:12px;fill:#d0d0d0;fill-rule:nonzero;stroke:#000000;stroke-width:1;stroke-linecap:butt;stroke-linejoin:bevel;stroke-miterlimit:4;stroke-opacity:1;stroke-dasharray:none;marker-start:none"
     d="m 262.60844,108.4388 11.56991,-3.144 20.02936,35.02832 -14.62168,5.44122 -2.57389,1.32467 -6.87487,-0.90547 -10.95788,1.17375 -0.19283,0 -1.28276,-1.36659 -6.53113,-9.89311 -4.12492,-4.65312 0.0335,-0.52819 3.37037,-7.4366 4.76211,-8.66067 1.81094,-2.18822 5.58374,-4.19199"
     id="Wilkes"
     inkscape:connector-curvature="0" />
  <path
     style="font-size:12px;fill:#d0d0d0;fill-rule:nonzero;stroke:#000000;stroke-width:1;stroke-linecap:butt;stroke-linejoin:bevel;stroke-miterlimit:4;stroke-opacity:1;stroke-dasharray:none;marker-start:none"
     d="m 279.58603,145.76434 5.44121,10.80696 8.16601,15.1918 3.95725,1.2073 10.62252,1.32467 -3.70573,4.61119 -6.4976,-2.23014 -5.70111,-1.76902 -2.64934,0.98092 -13.71622,9.40685 -3.78118,-5.7095 -4.76211,-12.01427 -2.87571,-1.47558 -1.39174,-2.15469 0.11738,-0.45273 2.94278,-4.60281 8.35046,-7.30246 2.90924,-4.49382 2.57389,-1.32467"
     id="Warren"
     inkscape:connector-curvature="0" />
  <path
     style="font-size:12px;fill:#d0d0d0;fill-rule:nonzero;stroke:#000000;stroke-width:1;stroke-linecap:butt;stroke-linejoin:bevel;stroke-miterlimit:4;stroke-opacity:1;stroke-dasharray:none;marker-start:none"
     d="m 298.86083,138.43672 -0.79648,1.09831 -0.0755,1.43366 1.47559,8.49299 5.93587,8.29177 8.08217,9.7422 1.61811,1.05638 -4.64474,5.32384 -2.68287,0.4192 -10.62252,-1.32467 -3.95725,-1.2073 -8.16601,-15.1918 -5.44121,-10.80696 14.62168,-5.44122 4.65312,-1.8864"
     id="McDuffie"
     inkscape:connector-curvature="0" />
  <path
     style="font-size:12px;fill:#d0d0d0;fill-rule:nonzero;stroke:#000000;stroke-width:1;stroke-linecap:butt;stroke-linejoin:bevel;stroke-miterlimit:4;stroke-opacity:1;stroke-dasharray:none;marker-start:none"
     d="m 275.50302,185.29487 13.71622,-9.40685 2.64934,-0.98092 5.70111,1.76902 6.4976,2.23014 -3.09369,3.17754 -8.96249,9.90149 0.30182,1.01447 0.72102,4.57766 -7.21861,0.22636 -9.41523,-10.96626 -0.89709,-1.54265"
     id="Glascock"
     inkscape:connector-curvature="0" />
  <path
     style="font-size:12px;fill:#d0d0d0;fill-rule:nonzero;stroke:#000000;stroke-width:1;stroke-linecap:butt;stroke-linejoin:bevel;stroke-miterlimit:4;stroke-opacity:1;stroke-dasharray:none;marker-start:none"
     d="m 307.77302,174.29507 2.68287,-0.4192 8.34208,3.71411 0.50304,0.10899 0.75456,0.60365 2.45651,2.72479 -1.85287,8.84512 -0.60364,4.75372 -0.15092,5.25676 0.67911,2.6745 1.01446,3.06854 1.92832,7.4366 -1.12346,6.57305 -1.20729,4.91302 -9.41523,9.44877 -8.72773,-5.32384 -2.00378,-11.8382 -4.04108,-8.34207 -0.26829,0.0335 -3.28653,-1.69356 -3.6638,-2.80026 -1.47558,-1.97024 -2.49843,-4.25907 7.21861,-0.22636 -0.72102,-4.57766 -0.30182,-1.01447 8.96249,-9.90149 3.09369,-3.17754 3.70573,-4.61119"
     id="Jefferson"
     inkscape:connector-curvature="0" />
  <path
     style="font-size:12px;fill:#d0d0d0;fill-rule:nonzero;stroke:#000000;stroke-width:1;stroke-linecap:butt;stroke-linejoin:bevel;stroke-miterlimit:4;stroke-opacity:1;stroke-dasharray:none;marker-start:none"
     d="m 285.81534,197.80378 2.49843,4.25907 1.47558,1.97024 3.6638,2.80026 3.28653,1.69356 0.26829,-0.0335 4.04108,8.34207 2.00378,11.8382 -7.56237,3.78118 -4.9214,2.29721 -9.88473,0.12576 -2.64934,-1.29113 -12.2071,7.21023 -1.28275,-4.44351 -2.41459,-3.78957 -1.50912,-0.939 -4.05785,-1.40013 -4.86271,-7.98156 -0.0419,-14.68876 3.9237,-0.57011 8.8535,-6.43053 0.93063,-1.23244 0.61203,-1.78579 0.72102,-3.0937 0.91386,-1.81932 6.14546,-5.3993 2.64096,-0.38566 9.41523,10.96626"
     id="Washington"
     inkscape:connector-curvature="0" />
  <path
     style="font-size:12px;fill:#d0d0d0;fill-rule:nonzero;stroke:#000000;stroke-width:1;stroke-linecap:butt;stroke-linejoin:bevel;stroke-miterlimit:4;stroke-opacity:1;stroke-dasharray:none;marker-start:none"
     d="m 311.78056,233.99749 -15.3427,29.56196 -2.60743,-0.88032 -0.79648,-9.54937 -11.67051,-6.5479 -7.32762,-2.15469 -8.35884,2.00378 0.15091,-5.63405 12.2071,-7.21023 2.64934,1.29113 9.88473,-0.12576 4.9214,-2.29721 7.56237,-3.78118 8.72773,5.32384"
     id="Johnson"
     inkscape:connector-curvature="0" />
  <path
     style="font-size:12px;fill:#d0d0d0;fill-rule:nonzero;stroke:#000000;stroke-width:1;stroke-linecap:butt;stroke-linejoin:bevel;stroke-miterlimit:4;stroke-opacity:1;stroke-dasharray:none;marker-start:none"
     d="m 296.43786,263.55945 13.60722,-0.34375 2.38105,0.67911 7.9648,3.32006 0.87193,0.75456 -0.19283,5.32383 -0.75456,4.2423 -21.35403,9.17209 -6.14547,-0.36889 3.62189,-22.77931"
     id="Treutlen"
     inkscape:connector-curvature="0" />
  <path
     style="font-size:12px;fill:#d0d0d0;fill-rule:nonzero;stroke:#000000;stroke-width:1;stroke-linecap:butt;stroke-linejoin:bevel;stroke-miterlimit:4;stroke-opacity:1;stroke-dasharray:none;marker-start:none"
     d="m 320.31547,277.53556 -0.56173,42.0122 -5.48313,2.07923 -5.75142,-5.21485 -0.41081,-0.68748 -0.93901,-1.65165 -2.70803,-8.53491 -0.69587,-5.75142 -3.21107,-10.80696 -0.75456,-2.14631 -0.8384,-0.12576 21.35403,-9.17209"
     id="Montgomery"
     inkscape:connector-curvature="0" />
  <path
     style="font-size:12px;fill:#d0d0d0;fill-rule:nonzero;stroke:#000000;stroke-width:1;stroke-linecap:butt;stroke-linejoin:bevel;stroke-miterlimit:4;stroke-opacity:1;stroke-dasharray:none;marker-start:none"
     d="m 320.31547,277.53556 16.44101,1.4672 6.19577,18.55378 0.87194,24.82501 -19.52632,-2.97632 -4.54413,0.14253 0.56173,-42.0122"
     id="Toombs"
     inkscape:connector-curvature="0" />
  <path
     style="font-size:12px;fill:#d0d0d0;fill-opacity:1;fill-rule:nonzero;stroke:#000000;stroke-width:1;stroke-linecap:butt;stroke-linejoin:bevel;stroke-miterlimit:4;stroke-opacity:1;stroke-dasharray:none;marker-start:none"
     d="m 383.61462,301.715 3.21107,-5.02201 7.78035,3.54643 16.06373,5.39929 6.64851,2.28045 0.75456,1.27437 2.91763,6.95871 0.17606,0.75456 -0.0251,0.30182 0.97254,0.87194 6.84134,5.02201 10.36262,5.0304 0.56172,0.17606 -0.32697,0.80486 1.83609,1.66003 2.45651,0.71264 0.57012,-0.33536 0.14252,-0.5198 0.23475,-0.1593 0.90548,-0.18445 0.79648,0.30183 0.63718,4.46028 0.37728,3.32845 -1.55104,6.03647 -0.90547,1.73549 -0.52819,0.11738 -1.54266,-1.09831 -0.12576,-2.9847 -0.37728,-0.75456 -3.01824,-2.49005 -1.66003,-0.79647 -2.64934,-0.86356 -4.98009,-0.20121 -6.61497,2.80025 -2.34752,-0.56173 -4.49382,-3.14399 -2.9847,-0.86355 -0.75456,0.0335 -13.94258,-5.01363 -12.92812,-9.98533 -0.25991,-1.16538 -5.06393,-10.27877 -2.3056,-2.80026 5.13939,-4.38483"
     id="Liberty"
     inkscape:connector-curvature="0" />
  <path
     style="font-size:12px;fill:#d0d0d0;fill-rule:nonzero;stroke:#000000;stroke-width:1;stroke-linecap:butt;stroke-linejoin:bevel;stroke-miterlimit:4;stroke-opacity:1;stroke-dasharray:none;marker-start:none"
     d="m 356.10674,280.52027 5.24838,0.32697 18.74661,9.9518 6.72396,5.89395 -3.21107,5.02201 -11.56991,1.47559 -8.72774,-2.12115 -7.21023,-20.54917"
     id="Evans"
     inkscape:connector-curvature="0" />
  <path
     style="font-size:12px;fill:#d0d0d0;fill-rule:nonzero;stroke:#000000;stroke-width:1;stroke-linecap:butt;stroke-linejoin:bevel;stroke-miterlimit:4;stroke-opacity:1;stroke-dasharray:none;marker-start:none"
     d="m 336.75648,279.00276 19.35026,1.51751 7.21023,20.54917 8.72774,2.12115 11.56991,-1.47559 -5.13939,4.38483 -9.49068,26.14968 -7.81388,-2.9847 -17.34648,-6.88326 -0.87194,-24.82501 -6.19577,-18.55378"
     id="Tattnall"
     inkscape:connector-curvature="0" />
  <path
     style="font-size:12px;fill:#d0d0d0;fill-rule:nonzero;stroke:#000000;stroke-width:1;stroke-linecap:butt;stroke-linejoin:bevel;stroke-miterlimit:4;stroke-opacity:1;stroke-dasharray:none;marker-start:none"
     d="m 351.52908,252.70218 5.74303,1.97023 6.27123,9.82604 -1.42528,13.74975 -0.76294,2.59904 -5.24838,-0.32697 -19.35026,-1.51751 -1.81933,-4.4519 4.04947,-12.8862 2.18823,-5.44959 5.55858,-5.13939 4.79565,1.6265"
     id="Candler"
     inkscape:connector-curvature="0" />
  <path
     style="font-size:12px;fill:#d0d0d0;fill-rule:nonzero;stroke:#000000;stroke-width:1;stroke-linecap:butt;stroke-linejoin:bevel;stroke-miterlimit:4;stroke-opacity:1;stroke-dasharray:none;marker-start:none"
     d="m 336.91578,224.8254 16.12242,20.21381 -1.50912,7.66297 -4.79565,-1.6265 -5.55858,5.13939 -2.18823,5.44959 -4.04947,12.8862 1.81933,4.4519 -16.44101,-1.4672 0.75456,-4.2423 0.19283,-5.32383 -0.87193,-0.75456 -7.9648,-3.32006 -2.38105,-0.67911 -13.60722,0.34375 15.3427,-29.56196 9.41523,-9.44877 15.71999,0.27668"
     id="Emanuel"
     inkscape:connector-curvature="0" />
  <path
     style="font-size:12px;fill:#d0d0d0;fill-opacity:1;fill-rule:nonzero;stroke:#000000;stroke-width:1;stroke-linecap:butt;stroke-linejoin:bevel;stroke-miterlimit:4;stroke-opacity:1;stroke-dasharray:none;marker-start:none"
     d="m 438.13573,274.1652 0.46951,2.11277 0.85516,4.31775 1.17376,4.68665 0.4192,0.41082 5.10586,1.97024 16.8099,3.16915 3.13562,0.34374 0.86355,0.15091 0.45273,1.31629 0,0.94739 -0.33536,1.66003 -0.94739,2.23015 -15.14987,24.41419 -0.67911,0.94739 -4.2423,4.86271 -0.63718,0.30183 -2.07085,-0.44435 -3.02662,-9.18048 -4.192,-10.9998 -10.4716,-6.99225 -7.52045,-6.69881 -1.9367,-2.21337 21.92414,-17.31295"
     id="Chatham"
     inkscape:connector-curvature="0" />
  <path
     style="font-size:12px;fill:#d0d0d0;fill-opacity:1;fill-rule:nonzero;stroke:#000000;stroke-width:1;stroke-linecap:butt;stroke-linejoin:bevel;stroke-miterlimit:4;stroke-opacity:1;stroke-dasharray:none;marker-start:none"
     d="m 380.10173,290.79904 29.73802,-14.28632 6.37184,14.96543 1.9367,2.21337 7.52045,6.69881 10.4716,6.99225 4.192,10.9998 3.02662,9.18048 -3.47936,0.74617 -0.56172,-0.17606 -10.36262,-5.0304 -6.84134,-5.02201 -0.97254,-0.87194 0.0251,-0.30182 -0.17606,-0.75456 -2.91763,-6.95871 -0.75456,-1.27437 -6.64851,-2.28045 -16.06373,-5.39929 -7.78035,-3.54643 -6.72396,-5.89395"
     id="Bryan"
     inkscape:connector-curvature="0" />
  <path
     style="font-size:12px;fill:#d0d0d0;fill-rule:nonzero;stroke:#000000;stroke-width:1;stroke-linecap:butt;stroke-linejoin:bevel;stroke-miterlimit:4;stroke-opacity:1;stroke-dasharray:none;marker-start:none"
     d="m 366.75441,238.34039 28.94155,13.12095 14.14379,25.05138 -29.73802,14.28632 -18.74661,-9.9518 0.76294,-2.59904 1.42528,-13.74975 -6.27123,-9.82604 -5.74303,-1.97023 1.50912,-7.66297 13.71621,-6.69882"
     id="Bulloch"
     inkscape:connector-curvature="0" />
  <path
     style="font-size:12px;fill:#d0d0d0;fill-rule:nonzero;stroke:#000000;stroke-width:1;stroke-linecap:butt;stroke-linejoin:bevel;stroke-miterlimit:4;stroke-opacity:1;stroke-dasharray:none;marker-start:none"
     d="m 336.91578,224.8254 -0.38567,-0.72103 1.16538,-7.18508 3.26137,-4.12492 19.4844,-6.8665 3.03501,0.44436 3.88179,1.2576 0.94739,0.67071 0.83002,1.14023 -2.38106,28.89962 -13.71621,6.69882 -16.12242,-20.21381"
     id="Jenkins"
     inkscape:connector-curvature="0" />
  <path
     style="font-size:12px;fill:#d0d0d0;fill-opacity:1;fill-rule:nonzero;stroke:#000000;stroke-width:1;stroke-linecap:butt;stroke-linejoin:bevel;stroke-miterlimit:4;stroke-opacity:1;stroke-dasharray:none;marker-start:none"
     d="m 408.1378,237.88766 9.44877,3.78118 1.73548,0.64557 8.04864,6.6485 9.59128,19.45925 1.17376,5.74304 -21.92414,17.31295 -6.37184,-14.96543 -14.14379,-25.05138 12.44184,-13.57368"
     id="Effingham"
     inkscape:connector-curvature="0" />
  <path
     style="font-size:12px;fill:#d0d0d0;fill-rule:nonzero;stroke:#000000;stroke-width:1;stroke-linecap:butt;stroke-linejoin:bevel;stroke-miterlimit:4;stroke-opacity:1;stroke-dasharray:none;marker-start:none"
     d="m 369.13547,209.44077 17.91659,-17.69023 17.18719,30.34167 3.89855,15.79545 -12.44184,13.57368 -28.94155,-13.12095 2.38106,-28.89962"
     id="Screven"
     inkscape:connector-curvature="0" />
  <path
     style="font-size:12px;fill:#d0d0d0;fill-rule:nonzero;stroke:#000000;stroke-width:1;stroke-linecap:butt;stroke-linejoin:bevel;stroke-miterlimit:4;stroke-opacity:1;stroke-dasharray:none;marker-start:none"
     d="m 318.79797,177.58998 8.16601,-4.43514 0.60364,0.0419 2.95117,1.71034 0.63718,1.27436 5.33222,2.0457 8.69421,-0.0755 7.40306,-4.76211 3.5632,0.86356 8.40914,6.35506 15.08281,7.06771 7.41145,4.07462 -17.91659,17.69023 -0.83002,-1.14023 -0.94739,-0.67071 -3.88179,-1.2576 -3.03501,-0.44436 -19.4844,6.8665 -3.26137,4.12492 -1.16538,7.18508 0.38567,0.72103 -15.71999,-0.27668 1.20729,-4.91302 1.12346,-6.57305 -1.92832,-7.4366 -1.01446,-3.06854 -0.67911,-2.6745 0.15092,-5.25676 0.60364,-4.75372 1.85287,-8.84512 -2.45651,-2.72479 -0.75456,-0.60365 -0.50304,-0.10899"
     id="Burke"
     inkscape:connector-curvature="0" />
  <path
     style="font-size:12px;fill:#d0d0d0;fill-rule:nonzero;stroke:#000000;stroke-width:1;stroke-linecap:butt;stroke-linejoin:bevel;stroke-miterlimit:4;stroke-opacity:1;stroke-dasharray:none;marker-start:none"
     d="m 335.7001,144.66603 1.4672,1.36659 0.76294,0.72103 4.23392,4.00755 5.99455,6.99225 2.12115,8.19116 5.8688,8.30854 -3.5632,-0.86356 -7.40306,4.76211 -8.69421,0.0755 -5.33222,-2.0457 -0.63718,-1.27436 -2.95117,-1.71034 -0.60364,-0.0419 -8.16601,4.43514 -8.34208,-3.71411 4.64474,-5.32384 20.59947,-23.886"
     id="Richmond"
     inkscape:connector-curvature="0" />
  <path
     style="font-size:12px;fill:#d0d0d0;fill-rule:nonzero;stroke:#000000;stroke-width:1;stroke-linecap:butt;stroke-linejoin:bevel;stroke-miterlimit:4;stroke-opacity:1;stroke-dasharray:none;marker-start:none"
     d="m 316.61813,131.93913 10.34585,9.02956 8.73612,3.69734 -20.59947,23.886 -1.61811,-1.05638 -8.08217,-9.7422 -5.93587,-8.29177 -1.47559,-8.49299 0.0755,-1.43366 0.79648,-1.09831 17.7573,-6.49759"
     id="Columbia"
     inkscape:connector-curvature="0" />
  <path
     style="font-size:12px;fill:#d0d0d0;fill-rule:nonzero;stroke:#000000;stroke-width:1;stroke-linecap:butt;stroke-linejoin:bevel;stroke-miterlimit:4;stroke-opacity:1;stroke-dasharray:none;marker-start:none"
     d="m 274.17835,105.2948 7.63782,2.08761 13.37247,7.9648 0.56173,0.15091 1.2576,-0.48627 0.41081,0.0335 7.71328,3.89018 2.33913,1.66841 5.55859,4.56928 3.58835,6.76588 -17.7573,6.49759 -4.65312,1.8864 -20.02936,-35.02832"
     id="Lincoln"
     inkscape:connector-curvature="0" />
  <path
     style="font-size:12px;fill:#d0d0d0;fill-rule:nonzero;stroke:#000000;stroke-width:1;stroke-linecap:butt;stroke-linejoin:bevel;stroke-miterlimit:4;stroke-opacity:1;stroke-dasharray:none;marker-start:none"
     d="m 259.06201,73.703916 3.32845,8.660666 15.71999,19.383788 3.70572,5.63404 -7.63782,-2.08761 -11.56991,3.144 -18.46994,-5.40768 -11.63698,-18.520236 26.56049,-10.806968"
     id="Elbert"
     inkscape:connector-curvature="0" />
  <path
     style="font-size:12px;fill:#d0d0d0;fill-rule:nonzero;stroke:#000000;stroke-width:1;stroke-linecap:butt;stroke-linejoin:bevel;stroke-miterlimit:4;stroke-opacity:1;stroke-dasharray:none;marker-start:none"
     d="m 228.67842,79.908072 3.8231,4.602812 11.63698,18.520236 -5.9694,3.81472 -1.2073,-0.14253 -4.83756,-1.40851 -1.29114,-0.75456 -0.64556,0.0755 -10.30393,6.58144 -9.60806,-3.26137 -6.01132,-16.399089 3.78956,-3.395517 20.62463,-8.233082"
     id="Madison"
     inkscape:connector-curvature="0" />
  <path
     style="font-size:12px;fill:#d0d0d0;fill-rule:nonzero;stroke:#000000;stroke-width:1;stroke-linecap:butt;stroke-linejoin:bevel;stroke-miterlimit:4;stroke-opacity:1;stroke-dasharray:none;marker-start:none"
     d="m 200.8771,63.08978 7.17669,25.051374 -3.78956,3.395517 -2.2553,-1.919935 -5.52505,-4.124925 -3.28652,1.064768 -3.84826,0.754559 -1.05638,-0.37728 -1.81933,-1.173759 -2.75833,-2.230142 -1.43366,-14.705525 12.87781,-7.176699 5.71789,1.442047"
     id="Banks"
     inkscape:connector-curvature="0" />
  <path
     style="font-size:12px;fill:#d0d0d0;fill-rule:nonzero;stroke:#000000;stroke-width:1;stroke-linecap:butt;stroke-linejoin:bevel;stroke-miterlimit:4;stroke-opacity:1;stroke-dasharray:none;marker-start:none"
     d="m 176.68927,61.614197 5.59213,7.210235 1.43366,14.705525 -15.0828,20.373093 -22.21759,-1.60134 7.07609,-19.073577 -3.13561,-8.920569 10.76505,-10.87404 15.56907,-1.819327"
     id="Hall"
     inkscape:connector-curvature="0" />
  <path
     style="font-size:12px;fill:#d0d0d0;fill-rule:nonzero;stroke:#000000;stroke-width:1;stroke-linecap:butt;stroke-linejoin:bevel;stroke-miterlimit:4;stroke-opacity:1;stroke-dasharray:none;marker-start:none"
     d="m 156.96174,40.184709 4.15846,23.248815 -10.76505,10.87404 -20.86776,-17.530931 2.08761,-5.323836 6.7575,-1.358207 7.25216,-6.807803 11.37708,-3.102078"
     id="Lumpkin"
     inkscape:connector-curvature="0" />
  <path
     style="font-size:12px;fill:#d0d0d0;fill-rule:nonzero;stroke:#000000;stroke-width:1;stroke-linecap:butt;stroke-linejoin:bevel;stroke-miterlimit:4;stroke-opacity:1;stroke-dasharray:none;marker-start:none"
     d="m 88.414204,34.106314 16.784756,-1.961855 5.02201,0.570112 3.85664,2.422974 2.04569,1.534271 6.22931,8.350458 5.24838,7.629434 0.94739,2.573886 -12.32447,7.553979 -2.07923,1.819326 -16.62546,1.810943 -8.233081,1.173759 -0.452736,-3.697341 -2.112766,-15.686453 1.056383,-4.988476 2.339134,-2.565502 1.894783,-3.252989 0.03354,-0.343744 -0.226368,-0.33536 -3.403901,-2.607422"
     id="Gilmer"
     inkscape:connector-curvature="0" />
  <path
     style="font-size:12px;fill:#d0d0d0;fill-rule:nonzero;stroke:#000000;stroke-width:1;stroke-linecap:butt;stroke-linejoin:bevel;stroke-miterlimit:4;stroke-opacity:1;stroke-dasharray:none;marker-start:none"
     d="m 112.63556,16.575383 16.82668,-1.970238 -3.5129,3.747645 -0.31859,0.603647 0.0838,0.561728 5.17293,14.588149 1.66841,1.089919 1.66003,-0.519807 -0.41081,11.368695 -2.23015,5.407676 -2.08761,5.323836 -0.93901,-1.551039 -0.94739,-2.573886 -5.24838,-7.629434 -6.22931,-8.350458 -2.04569,-1.534271 -3.85664,-2.422974 -5.02201,-0.570112 -16.784756,1.961855 -1.961855,-14.311477 26.183211,-3.219454"
     id="Fannin"
     inkscape:connector-curvature="0" />
  <path
     style="font-size:12px;fill:#d0d0d0;fill-rule:nonzero;stroke:#000000;stroke-width:1;stroke-linecap:butt;stroke-linejoin:bevel;stroke-miterlimit:4;stroke-opacity:1;stroke-dasharray:none;marker-start:none"
     d="m 140.29436,13.246938 6.0197,-0.788096 -0.52819,1.995391 2.80026,2.682878 5.35737,3.026621 2.55712,-0.192831 2.58227,1.475582 3.21107,7.520443 0.37728,2.716414 -5.7095,8.501369 -11.37708,3.102078 -7.25216,6.807803 -6.7575,1.358207 2.23015,-5.407676 0.41081,-11.368695 -1.66003,0.519807 -1.66841,-1.089919 -5.17293,-14.588149 -0.0838,-0.561728 0.31859,-0.603647 3.5129,-3.747645 10.83212,-1.358207"
     id="Union"
     inkscape:connector-curvature="0" />
  <path
     style="font-size:12px;fill:#d0d0d0;fill-rule:nonzero;stroke:#000000;stroke-width:1;stroke-linecap:butt;stroke-linejoin:bevel;stroke-miterlimit:4;stroke-opacity:1;stroke-dasharray:none;marker-start:none"
     d="m 162.67124,31.68334 8.5349,-1.928319 4.65312,2.682878 0.60365,1.022847 0.60364,2.724798 3.39552,20.591089 -3.7728,4.837564 -15.56907,1.819327 -4.15846,-23.248815 5.7095,-8.501369"
     id="White"
     inkscape:connector-curvature="0" />
  <path
     style="font-size:12px;fill:#d0d0d0;fill-rule:nonzero;stroke:#000000;stroke-width:1;stroke-linecap:butt;stroke-linejoin:bevel;stroke-miterlimit:4;stroke-opacity:1;stroke-dasharray:none;marker-start:none"
     d="m 173.4782,27.005071 27.72587,8.048634 1.74387,2.909246 -7.78873,23.684782 -12.87781,7.176699 -5.59213,-7.210235 3.7728,-4.837564 -3.39552,-20.591089 -0.60364,-2.724798 -0.60365,-1.022847 -4.65312,-2.682878 2.27206,-2.74995"
     id="Habersham"
     inkscape:connector-curvature="0" />
  <path
     style="font-size:12px;fill:#d0d0d0;fill-rule:nonzero;stroke:#000000;stroke-width:1;stroke-linecap:butt;stroke-linejoin:bevel;stroke-miterlimit:4;stroke-opacity:1;stroke-dasharray:none;marker-start:none"
     d="m 230.79957,55.527418 5.48313,0.762943 0.98093,-0.494655 0.0754,-0.03354 3.52128,-0.871936 3.16915,-0.419199 1.85286,0.528191 0.90547,0.687488 -0.0335,0.29344 2.94278,4.544124 9.36492,13.179638 -26.56049,10.806968 -3.8231,-4.602812 2.12115,-24.380654"
     id="Hart"
     inkscape:connector-curvature="0" />
  <path
     style="font-size:12px;fill:#d0d0d0;fill-rule:nonzero;stroke:#000000;stroke-width:1;stroke-linecap:butt;stroke-linejoin:bevel;stroke-miterlimit:4;stroke-opacity:1;stroke-dasharray:none;marker-start:none"
     d="m 225.38351,51.754621 5.41606,3.772797 -2.12115,24.380654 -20.62463,8.233082 -7.17669,-25.051374 1.76902,-1.089919 0.6791,-0.234752 16.66738,-3.018237 5.39091,-6.992251"
     id="Franklin"
     inkscape:connector-curvature="0" />
  <path
     style="font-size:12px;fill:#d0d0d0;fill-rule:nonzero;stroke:#000000;stroke-width:1;stroke-linecap:butt;stroke-linejoin:bevel;stroke-miterlimit:4;stroke-opacity:1;stroke-dasharray:none;marker-start:none"
     d="m 202.94794,37.962951 22.43557,13.79167 -5.39091,6.992251 -16.66738,3.018237 -0.6791,0.234752 -1.76902,1.089919 -5.71789,-1.442047 7.78873,-23.684782"
     id="Stephens"
     inkscape:connector-curvature="0" />
</svg>
