<?xml version="1.0" encoding="UTF-8" standalone="no"?>
<!-- Created with Inkscape (http://www.inkscape.org/) -->

<svg
   xmlns:dc="http://purl.org/dc/elements/1.1/"
   xmlns:cc="http://creativecommons.org/ns#"
   xmlns:rdf="http://www.w3.org/1999/02/22-rdf-syntax-ns#"
   xmlns:svg="http://www.w3.org/2000/svg"
   xmlns="http://www.w3.org/2000/svg"
   xmlns:sodipodi="http://sodipodi.sourceforge.net/DTD/sodipodi-0.dtd"
   xmlns:inkscape="http://www.inkscape.org/namespaces/inkscape"
   width="363.94647"
   height="426.75732"
   viewBox="3 14 364.94647 426.75732"
   id="svg2"
   version="1.1"
   inkscape:version="0.48.2 r9819"
   sodipodi:docname="house.svg">
  <defs
     id="defs4">
    <inkscape:perspective
       sodipodi:type="inkscape:persp3d"
       inkscape:vp_x="0 : 526.18109 : 1"
       inkscape:vp_y="0 : 1000 : 0"
       inkscape:vp_z="744.09448 : 526.18109 : 1"
       inkscape:persp3d-origin="372.04724 : 350.78739 : 1"
       id="perspective10" />
    <inkscape:perspective
       id="perspective2884"
       inkscape:persp3d-origin="0.5 : 0.33333333 : 1"
       inkscape:vp_z="1 : 0.5 : 1"
       inkscape:vp_y="0 : 1000 : 0"
       inkscape:vp_x="0 : 0.5 : 1"
       sodipodi:type="inkscape:persp3d" />
    <inkscape:perspective
       sodipodi:type="inkscape:persp3d"
       inkscape:vp_x="0 : 526.18109 : 1"
       inkscape:vp_y="0 : 1000 : 0"
       inkscape:vp_z="744.09448 : 526.18109 : 1"
       inkscape:persp3d-origin="372.04724 : 350.78739 : 1"
       id="perspective3313" />
    <inkscape:perspective
       sodipodi:type="inkscape:persp3d"
       inkscape:vp_x="0 : 526.18109 : 1"
       inkscape:vp_y="0 : 1000 : 0"
       inkscape:vp_z="744.09448 : 526.18109 : 1"
       inkscape:persp3d-origin="372.04724 : 350.78739 : 1"
       id="perspective3263" />
    <inkscape:perspective
       sodipodi:type="inkscape:persp3d"
       inkscape:vp_x="0 : 526.18109 : 1"
       inkscape:vp_y="0 : 1000 : 0"
       inkscape:vp_z="744.09448 : 526.18109 : 1"
       inkscape:persp3d-origin="372.04724 : 350.78739 : 1"
       id="perspective3230" />
    <inkscape:perspective
       sodipodi:type="inkscape:persp3d"
       inkscape:vp_x="0 : 526.18109 : 1"
       inkscape:vp_y="0 : 1000 : 0"
       inkscape:vp_z="744.09448 : 526.18109 : 1"
       inkscape:persp3d-origin="372.04724 : 350.78739 : 1"
       id="perspective2464" />
    <inkscape:perspective
       id="perspective10-3"
       inkscape:persp3d-origin="372.04724 : 350.78739 : 1"
       inkscape:vp_z="744.09448 : 526.18109 : 1"
       inkscape:vp_y="0 : 1000 : 0"
       inkscape:vp_x="0 : 526.18109 : 1"
       sodipodi:type="inkscape:persp3d" />
  </defs>
  <sodipodi:namedview
     id="base"
     pagecolor="#ffffff"
     bordercolor="#666666"
     borderopacity="1.0"
     inkscape:pageopacity="0.0"
     inkscape:pageshadow="2"
     inkscape:zoom="1.1196396"
     inkscape:cx="313.23344"
     inkscape:cy="185.67759"
     inkscape:document-units="px"
     inkscape:current-layer="layer1"
     showgrid="false"
     inkscape:window-width="1366"
     inkscape:window-height="716"
     inkscape:window-x="-8"
     inkscape:window-y="-8"
     inkscape:window-maximized="1"
     fit-margin-top="0"
     fit-margin-left="0"
     fit-margin-right="0"
     fit-margin-bottom="0" />
  <metadata
     id="metadata7">
    <rdf:RDF>
      <cc:Work
         rdf:about="">
        <dc:format>image/svg+xml</dc:format>
        <dc:type
           rdf:resource="http://purl.org/dc/dcmitype/StillImage" />
        <dc:title />
      </cc:Work>
    </rdf:RDF>
  </metadata>
    <path
       style="fill:#b3b3b3;fill-opacity:1;stroke:#2b7fad;stroke-width:0.57759142;stroke-opacity:1"
       d="m 3.82005,14.250214 363.36887,0 0,426.179736 -363.36887,0 z"
       id="Walls"
       inkscape:connector-curvature="0" />
    <path
       style="fill:#666666;fill-opacity:1;stroke:#2b7fad;stroke-width:0.78229034;stroke-opacity:1"
       d="m 15.40697,57.35712 0,-23.35599 2.762,-3.11134 2.762,-3.11134 71.16489,0 71.1649,0 0,26.46733 0,26.46733 -73.92689,0 -73.9269,0 0,-23.35599 z"
       id="Kitchen"
       inkscape:connector-curvature="0"
       inkscape:label="#path3115" />
    <path
       style="fill:#666666;fill-opacity:1;stroke:#2b7fad;stroke-width:0.78229034;stroke-opacity:1"
       d="m 223.71329,54.6659 0,-26.04721 65.91512,0 65.91511,0 0,26.04721 0,26.04721 -65.91511,0 -65.91512,0 0,-26.04721 z"
       id="Toilet"
       inkscape:connector-curvature="0"
       inkscape:label="#path3117" />
    <path
       style="fill:#666666;fill-opacity:1;stroke:#2b7fad;stroke-width:0.78229034;stroke-opacity:1"
       d="m 306.74449,166.83695 0,-76.04105 24.39951,0 24.39952,0 0,76.04105 0,76.04105 -24.39952,0 -24.39951,0 0,-76.04105 z"
       id="Bedroom_1"
       inkscape:connector-curvature="0"
       inkscape:label="#path3119" />
    <path
       style="fill:#666666;fill-opacity:1;stroke:#2b7fad;stroke-width:0.78229034;stroke-opacity:1"
       d="m 306.74449,298.75347 0,-45.79268 24.76369,0 24.76368,0 0,45.79268 0,45.79268 -24.76368,0 -24.76369,0 0,-45.79268 z"
       id="Bedroom_2"
       inkscape:connector-curvature="0"
       inkscape:label="#path3121" />
    <path
       style="fill:#666666;fill-opacity:1;stroke:#2b7fad;stroke-width:0.78229034;stroke-opacity:1"
       d="m 306.74449,390.35 0,-35.72106 24.77159,0 24.77159,0 -0.18999,35.49983 -0.18999,35.49983 -24.5816,0.22123 -24.5816,0.22124 0,-35.72107 z"
       id="Bedroom_3"
       inkscape:connector-curvature="0"
       inkscape:label="#path3123" />
    <path
       style="fill:#666666;fill-opacity:1;stroke:#2b7fad;stroke-width:0.78229034;stroke-opacity:1"
       d="m 224.44164,398.74116 0,-27.30757 36.41719,0 36.41719,0 0,27.30757 0,27.30755 -36.41719,0 -36.41719,0 0,-27.30755 z"
       id="Bedroom_4"
       inkscape:connector-curvature="0"
       inkscape:label="#path3125" />
    <path
       style="fill:#666666;fill-opacity:1;stroke:#2b7fad;stroke-width:0.60321921;stroke-opacity:1"
       d="M 16.34411,379.69456 C 16.14796,353.94871 15.9279,278.58195 15.8551,212.21286 l -0.13238,-120.67108 68.237,-0.0105 c 37.53034,-0.006 100.90229,-0.19109 140.82655,-0.41182 l 72.58955,-0.40133 0,135.17468 0,135.17468 -40.99835,0 -40.99836,0 0,22.35248 0,22.35249 -4.49297,0 -4.49297,0 0,10.36637 0,10.36637 -8.70513,0 -8.70513,0 0,-9.71848 0,-9.71847 -8.98594,0 -8.98595,0 0,9.71847 0,9.71848 -77.15514,0 -77.15514,0 -0.35663,-46.81064 0,0 z"
       id="Hall"
       inkscape:connector-curvature="0"
       inkscape:label="#path3129" />
</svg>